<svg xmlns="http://www.w3.org/2000/svg" baseProfile="tiny-ps" version="1.2" viewBox="0 0 300 300"><defs><linearGradient id="a" x1="151.2" x2="141.3" y1="42.1" y2="735.4" gradientUnits="userSpaceOnUse"><stop offset="0" stop-color="#56ccf2"/><stop offset=".5" stop-color="#2f80ed"/></linearGradient></defs><path fill="url(#a)" d="M107.5 23.9c7.2 0 31.2 9.3 31.2 14.6 0 .8-.3 1.5-.7 1.8-1.8 2.2-3.2 3.6-4.3 6.1-10 17.6-21.5 56-30.8 95.3l5 2.2c38-33 82.4-84.6 103.2-121.9 1.4-2.1 1.8-4.3 2.5-6.8l1-1.4c4.7-2.9 24.8 11.8 28.4 17.6 5.4 8.6-43.7 62.7-90.7 106a511 511 0 01-25 22c26.5 36.8 60.5 75.9 88.8 96.7 2.2 1.4 4.3 2.5 6.5 3.5.7 0 1 .4 1.4 1.1 2.1 4.7-15 23-21.2 25.8-9 4.3-57-51.2-94.2-103.2l-7.5-11c-1.8-.5-3.3-1.2-4.7-1.9-7.2 34.4-12.2 66-12.2 80.3 0 2.9-1 4.3-4.3 4.3-8.6 0-23.6-7.9-23.6-15.8C56.3 178.7 92.5 24 107.5 24z"/></svg>