<svg xmlns="http://www.w3.org/2000/svg" baseProfile="tiny-ps" version="1.2" viewBox="0 0 650 354"><defs><linearGradient id="grd1" x1="110.18" x2="100.28" y1="31.09" y2="724.45" gradientUnits="userSpaceOnUse"><stop offset="0" stop-color="#56ccf2"/><stop offset=".48" stop-color="#2f80ed"/></linearGradient><linearGradient id="grd2" x1="234.29" x2="224.39" y1="32.86" y2="726.22" gradientUnits="userSpaceOnUse"><stop offset="0" stop-color="#56ccf2"/><stop offset=".48" stop-color="#2f80ed"/></linearGradient><linearGradient id="grd3" x1="325.72" x2="315.82" y1="34.16" y2="727.52" gradientUnits="userSpaceOnUse"><stop offset="0" stop-color="#56ccf2"/><stop offset=".48" stop-color="#2f80ed"/></linearGradient><linearGradient id="grd4" x1="426.65" x2="416.76" y1="35.61" y2="728.96" gradientUnits="userSpaceOnUse"><stop offset="0" stop-color="#56ccf2"/><stop offset=".48" stop-color="#2f80ed"/></linearGradient><linearGradient id="grd5" x1="516.63" x2="506.73" y1="36.89" y2="730.25" gradientUnits="userSpaceOnUse"><stop offset="0" stop-color="#56ccf2"/><stop offset=".48" stop-color="#2f80ed"/></linearGradient><linearGradient id="grd6" x1="590.36" x2="580.46" y1="37.94" y2="731.3" gradientUnits="userSpaceOnUse"><stop offset="0" stop-color="#56ccf2"/><stop offset=".48" stop-color="#2f80ed"/></linearGradient></defs><style>.shp0{opacity:.102;fill:#2059a5}</style><path id="Layer" d="M51.43 35.21c7.17 0 31.18 9.32 31.18 14.69 0 .72-.36 1.43-.72 1.79-1.79 2.15-3.23 3.58-4.3 6.09-10.03 17.56-21.5 55.91-30.82 95.33 1.79.72 3.23 1.43 5.02 2.15C89.78 122.29 134.21 70.68 155 33.41c1.43-2.15 1.79-4.3 2.51-6.81.36-.72.72-1.08 1.07-1.43 4.66-2.87 24.73 11.83 28.31 17.56 5.38 8.6-43.72 62.71-90.67 106.08-8.24 7.53-16.48 15.05-25.09 21.86 26.52 36.91 60.56 75.97 88.88 96.76a50.98 50.98 0 003.17 1.89 50.91 50.91 0 003.28 1.69c.72 0 1.08.36 1.43 1.08 2.15 4.66-15.05 22.94-21.14 25.8-8.96 4.3-56.98-51.25-94.25-103.21l-1.93-2.75c-.64-.91-1.27-1.84-1.9-2.76a225.22 225.22 0 01-3.7-5.6c-1.79-.36-3.23-1.08-4.66-1.79-7.17 34.4-12.18 65.94-12.18 80.27 0 2.87-1.08 4.3-4.3 4.3-8.6 0-23.65-7.88-23.65-15.77 0-60.56 36.2-215.37 51.25-215.37z" class="shp0"/><path id="Layer" fill-rule="evenodd" d="M165.38 266.36c-14.33 0-22.22-9.32-23.65-22.22-4.66-39.06 15.41-101.06 50.89-120.05 11.11-6.45 24.01 2.15 36.91 8.6.72-1.07 1.43-3.22 1.79-4.66 1.43-2.87 3.23-4.66 5.38-4.66 6.81 0 18.64 6.45 22.94 10.39 3.94 2.87-.36 7.53-1.79 11.11-11.83 31.54-20.79 73.11-25.44 99.27-1.08 5.38 2.15 5.38 5.02 2.51 21.86-21.86 36.91-63.79 46.23-88.16 2.51-6.09 11.47-2.51 9.32 3.58-9.32 24.01-39.06 104.29-69.88 104.29-12.54 0-20.79-12.9-19.71-24.37.7-4.66 1.05-8.96 1.77-13.62.36-.72.36-1.43.36-2.51-10.39 21.86-24.01 40.5-40.14 40.5zm60.2-123.28a9.9 9.9 0 00-3.67-3.5 9.41 9.41 0 00-4.93-1.16c-24.73 0-43.72 61.64-45.87 92.46-.36 3.94-1.08 16.84 4.66 16.84 17.21 0 40.86-78.48 46.23-95.32 1.08-3.23 2.15-6.45 3.58-9.32z" class="shp0"/><path id="Layer" fill-rule="evenodd" d="M306.58 204.72c7.17 36.2 6.45 81.35-2.51 113.96-2.51 9.68-6.81 21.14-12.9 27.24-5.73 6.09-11.11 6.09-17.2 6.09-8.6 0-23.65-5.38-23.65-13.26 0-8.6.72-18.99 2.15-30.46 7.17-67.37 22.94-147.65 45.15-209.65 5.73-15.77 10.75-25.44 14.69-25.44 6.81 0 31.18 9.32 31.18 14.69 0 .72-.36 1.43-.72 1.79-1.79 2.15-3.23 3.58-4.66 6.09-10.03 18.28-21.86 58.41-31.54 98.91 18.64-2.86 42.29-20.07 49.1-36.55 2.87-5.73 11.83-2.15 9.32 3.94-8.96 20.43-36.91 39.42-58.41 42.65zm-21.5 115.03c-1.08 11.11-.72 16.84.72 16.84 2.5.01 6.08-11.82 7.16-15.05 9.68-30.1 10.39-64.86 6.81-95.68-6.09 30.82-11.47 62.36-14.69 93.89z" class="shp0"/><path id="Layer" d="M417.31 144.51c-25.08 26.88-47.66 71.32-54.47 104.29-.72 4.3-1.43 8.96-1.43 13.26 0 2.87-1.08 4.3-4.3 4.3-8.6 0-23.65-7.88-23.65-15.77 0-63.07 36.2-215.38 51.25-215.38 7.17 0 31.18 9.32 31.18 14.69 0 .72-.36 1.43-.72 1.79-1.79 2.15-3.23 3.58-4.3 6.09-13.98 24.73-30.46 89.23-40.5 140.48 13.26-28.31 32.61-56.26 51.96-72.39a10.08 10.08 0 016.81-2.51c5.38 0 24.37 6.45 24.37 13.26 0 1.43-.72 2.51-1.08 3.94-1.43 2.87-2.87 5.73-3.94 8.96-11.47 30.82-20.78 69.52-25.44 94.61-.72 5.38 1.43 6.09 5.38 2.51 21.5-21.86 37.99-63.79 47.66-88.16 2.15-6.09 11.47-2.51 8.96 3.58-9.32 24.01-40.5 104.29-71.31 104.29-12.18 0-20.79-12.9-19.35-24.37 3.21-30.81 11.81-67.37 22.92-97.47z" class="shp0"/><path id="Layer" d="M455.65 228.37c5.38-33.69 15.41-72.03 27.59-100.34 1.43-2.87 3.23-4.66 5.38-4.66 6.81 0 18.63 6.45 22.94 10.39 3.94 2.87-.36 7.53-1.43 11.11-12.18 31.54-22.58 73.11-27.24 99.27-1.07 5.38 2.15 5.38 5.02 2.51 21.86-21.86 38.35-63.79 47.66-88.16 2.51-6.09 11.47-2.51 9.32 3.58-9.32 24.01-40.5 104.29-71.32 104.29-12.54 0-20.79-12.9-19.71-24.37.71-4.66 1.07-8.96 1.79-13.62zm64.5-179.54c3.94.36 14.33 5.02 21.14 9.68 5.38 3.58 5.38 8.24 1.43 14.69-6.45 10.75-25.8 39.78-34.4 40.14-20.43.72-1.43-45.87 3.23-54.47 3.23-6.46 6.09-10.04 8.6-10.04z" class="shp0"/><path id="Layer" fill-rule="evenodd" d="M622.38 246.46c-7.73 8.89-18.73 19.9-26.99 19.9-12.54 0-20.79-12.9-19.71-24.37.71-4.66 1.07-8.96 1.79-13.62.36-.72.36-1.44.36-2.51-10.4 21.87-24.01 40.5-40.14 40.5-14.33 0-22.22-9.32-23.65-22.22-4.66-39.06 15.41-101.06 50.89-120.05 11.11-6.45 24.01 2.15 36.91 8.6.2-.37.39-.74.57-1.12a23.2 23.2 0 00.89-2.33c.13-.4.23-.8.33-1.21 1.44-2.87 3.23-4.66 5.38-4.66 6.81 0 18.64 6.45 22.94 10.39 3.94 2.87-.36 7.53-1.79 11.11-11.82 31.54-20.78 73.11-25.44 99.27-1.08 5.37 3.05 5.02 5.41 3.58 1.21-.73 10.69-10.83 11.66-11.91m-78.35-4.92c-.36 3.94-1.07 16.84 4.66 16.84 17.2 0 40.85-78.49 46.23-95.33 1.08-3.23 2.15-6.46 3.58-9.31a9.9 9.9 0 00-3.67-3.5 9.41 9.41 0 00-4.93-1.16c-24.73 0-43.72 61.64-45.87 92.46z" class="shp0"/><path id="Layer" fill="url(#grd1)" d="M66.53 12.85c7.17 0 31.18 9.32 31.18 14.69 0 .72-.36 1.43-.72 1.79-1.79 2.15-3.23 3.58-4.3 6.09-10.03 17.56-21.5 55.91-30.82 95.33 1.79.72 3.23 1.43 5.02 2.15 37.99-32.97 82.42-84.58 103.21-121.85 1.43-2.15 1.79-4.3 2.51-6.81.36-.72.72-1.08 1.07-1.43 4.66-2.87 24.73 11.83 28.31 17.56 5.38 8.6-43.72 62.71-90.67 106.08-8.24 7.53-16.48 15.05-25.09 21.86 26.52 36.91 60.56 75.97 88.88 96.76a50.98 50.98 0 003.17 1.89 50.91 50.91 0 003.28 1.69c.72 0 1.08.36 1.43 1.08 2.15 4.66-15.05 22.94-21.14 25.8-8.96 4.3-56.98-51.25-94.25-103.21a270.1 270.1 0 01-1.93-2.75c-.64-.91-1.27-1.84-1.9-2.76a225.22 225.22 0 01-3.7-5.6c-1.79-.36-3.23-1.08-4.66-1.79-7.17 34.4-12.18 65.94-12.18 80.27 0 2.87-1.08 4.3-4.3 4.3-8.6 0-23.65-7.88-23.65-15.77 0-60.55 36.2-215.37 51.25-215.37z"/><path id="Layer" fill="url(#grd2)" fill-rule="evenodd" d="M180.48 244c-14.33 0-22.22-9.32-23.65-22.22-4.66-39.06 15.41-101.06 50.89-120.05 11.11-6.45 24.01 2.15 36.91 8.6.72-1.07 1.43-3.22 1.79-4.66 1.43-2.87 3.23-4.66 5.38-4.66 6.81 0 18.64 6.45 22.94 10.39 3.94 2.87-.36 7.53-1.79 11.11-11.83 31.54-20.79 73.11-25.44 99.27-1.08 5.38 2.15 5.38 5.02 2.51 21.86-21.86 36.91-63.79 46.23-88.16 2.51-6.09 11.47-2.51 9.32 3.58C298.75 163.73 269 244 238.18 244c-12.54 0-20.79-12.9-19.71-24.37.72-4.66 1.08-8.96 1.79-13.62.36-.72.36-1.43.36-2.51-10.39 21.86-24.01 40.5-40.14 40.5zm60.21-123.28a9.9 9.9 0 00-3.67-3.5 9.41 9.41 0 00-4.93-1.16c-24.73 0-43.72 61.64-45.87 92.46-.36 3.94-1.08 16.84 4.66 16.84 17.2.01 40.85-78.48 46.23-95.32 1.08-3.23 2.15-6.45 3.58-9.32z"/><path id="Layer" fill="url(#grd3)" fill-rule="evenodd" d="M321.68 182.36c7.17 36.2 6.45 81.35-2.51 113.96-2.51 9.68-6.81 21.14-12.9 27.24-5.73 6.09-11.11 6.09-17.2 6.09-8.6 0-23.65-5.38-23.65-13.26 0-8.6.72-18.99 2.15-30.46 7.17-67.37 22.94-147.65 45.15-209.65 5.73-15.77 10.75-25.44 14.69-25.44 6.81 0 31.18 9.32 31.18 14.69 0 .72-.36 1.43-.72 1.79-1.79 2.15-3.23 3.58-4.66 6.09-10.03 18.28-21.86 58.41-31.54 98.91 18.64-2.86 42.3-20.06 49.1-36.55 2.87-5.73 11.83-2.15 9.32 3.94-8.96 20.43-36.91 39.42-58.41 42.65zm-21.5 115.04c-1.08 11.11-.72 16.84.72 16.84 2.5 0 6.09-11.83 7.16-15.05 9.68-30.1 10.39-64.86 6.81-95.68-6.09 30.82-11.47 62.36-14.69 93.89z"/><path id="Layer" fill="url(#grd4)" d="M432.41 122.15c-25.08 26.88-47.66 71.32-54.47 104.29-.72 4.3-1.43 8.96-1.43 13.26 0 2.87-1.08 4.3-4.3 4.3-8.6 0-23.65-7.88-23.65-15.77 0-63.07 36.2-215.38 51.25-215.38 7.17 0 31.18 9.32 31.18 14.69 0 .72-.36 1.43-.72 1.79-1.79 2.15-3.23 3.58-4.3 6.09-13.98 24.73-30.46 89.23-40.5 140.48 13.26-28.31 32.61-56.26 51.96-72.39a10.08 10.08 0 016.81-2.51c5.38 0 24.37 6.45 24.37 13.26 0 1.43-.72 2.51-1.08 3.94-1.43 2.87-2.87 5.73-3.94 8.96-11.47 30.82-20.78 69.52-25.44 94.61-.72 5.38 1.43 6.09 5.38 2.51 21.5-21.86 37.99-63.79 47.66-88.16 2.15-6.09 11.47-2.51 8.96 3.58-9.32 24.01-40.5 104.29-71.31 104.29-12.18 0-20.79-12.9-19.35-24.37 3.21-30.81 11.81-67.36 22.92-97.47z"/><path id="Layer" fill="url(#grd5)" d="M470.75 206.01c5.38-33.69 15.41-72.03 27.59-100.34 1.43-2.87 3.23-4.66 5.38-4.66 6.81 0 18.63 6.45 22.94 10.39 3.94 2.87-.36 7.53-1.43 11.11-12.18 31.54-22.58 73.11-27.24 99.27-1.07 5.38 2.15 5.38 5.02 2.51 21.86-21.86 38.35-63.79 47.66-88.16 2.51-6.09 11.47-2.51 9.32 3.58-9.32 24.01-40.5 104.29-71.32 104.29-12.54 0-20.79-12.9-19.71-24.37.72-4.66 1.07-8.96 1.79-13.62zm64.51-179.54c3.94.36 14.33 5.02 21.14 9.68 5.38 3.58 5.38 8.24 1.43 14.69-6.45 10.75-25.8 39.78-34.4 40.14-20.43.72-1.43-45.87 3.23-54.47 3.22-6.46 6.09-10.04 8.6-10.04z"/><path id="Layer" fill="url(#grd6)" fill-rule="evenodd" d="M634.67 229.35c-7.73 8.9-15.91 14.66-24.17 14.66-12.54 0-20.79-12.9-19.71-24.37.71-4.66 1.07-8.96 1.79-13.62.36-.72.36-1.44.36-2.51-10.4 21.87-24.01 40.5-40.14 40.5-14.33 0-22.22-9.32-23.65-22.22-4.66-39.06 15.41-101.06 50.89-120.05 11.11-6.45 24.01 2.15 36.91 8.6.2-.37.39-.74.57-1.12a23.2 23.2 0 00.89-2.33c.13-.4.23-.8.33-1.21 1.44-2.87 3.23-4.66 5.38-4.66 6.81 0 18.64 6.45 22.94 10.39 3.94 2.87-.36 7.53-1.79 11.11-11.82 31.54-20.78 73.11-25.44 99.27-1.08 5.37 3.05 5.02 5.41 3.58 1.21-.74 4.33-.32 5.3-1.4m-19.12-105.24a9.6 9.6 0 00-7-2.66c-24.73 0-43.72 61.64-45.87 92.46-.36 3.94-1.07 16.84 4.66 16.84 17.2 0 40.85-78.49 46.23-95.33a59.64 59.64 0 011.63-4.72 65.5 65.5 0 011.95-4.59 9.9 9.9 0 00-1.6-2z"/></svg>