<svg xmlns="http://www.w3.org/2000/svg" baseProfile="tiny-ps" version="1.2" viewBox="0 0 1200 750"><defs><linearGradient id="grd1" x1="1024.381" x2="1024.381" y1="549.714" y2="620.914" gradientUnits="userSpaceOnUse"><stop offset="0" stop-color="#56CCF2"/><stop offset=".967" stop-color="#2F80ED"/></linearGradient><linearGradient id="grd2" x1="404.176" x2="394.279" y1="410.089" y2="1103.445" gradientUnits="userSpaceOnUse"><stop offset="0" stop-color="#56CCF2"/><stop offset=".482" stop-color="#2F80ED"/></linearGradient><linearGradient id="grd3" x1="528.289" x2="518.392" y1="411.86" y2="1105.216" gradientUnits="userSpaceOnUse"><stop offset="0" stop-color="#56CCF2"/><stop offset=".482" stop-color="#2F80ED"/></linearGradient><linearGradient id="grd4" x1="619.717" x2="609.819" y1="413.165" y2="1106.522" gradientUnits="userSpaceOnUse"><stop offset="0" stop-color="#56CCF2"/><stop offset=".482" stop-color="#2F80ED"/></linearGradient><linearGradient id="grd5" x1="720.655" x2="710.757" y1="414.606" y2="1107.962" gradientUnits="userSpaceOnUse"><stop offset="0" stop-color="#56CCF2"/><stop offset=".482" stop-color="#2F80ED"/></linearGradient><linearGradient id="grd6" x1="810.628" x2="800.731" y1="415.891" y2="1109.247" gradientUnits="userSpaceOnUse"><stop offset="0" stop-color="#56CCF2"/><stop offset=".482" stop-color="#2F80ED"/></linearGradient><linearGradient id="grd7" x1="884.358" x2="874.461" y1="416.943" y2="1110.299" gradientUnits="userSpaceOnUse"><stop offset="0" stop-color="#56CCF2"/><stop offset=".482" stop-color="#2F80ED"/></linearGradient><linearGradient id="grd8" x1="190.188" x2="190.189" y1="108.71" y2="599.35" gradientUnits="userSpaceOnUse"><stop offset=".33" stop-color="#56CCF2"/><stop offset=".812" stop-color="#2F80ED"/></linearGradient><linearGradient id="grd9" x1="294.397" x2="294.397" y1="135.148" y2="609.664" gradientUnits="userSpaceOnUse"><stop offset=".33" stop-color="#56CCF2"/><stop offset=".812" stop-color="#2F80ED"/></linearGradient><linearGradient id="grd10" x1="225.533" x2="224.953" y1="594.039" y2="634.659" gradientUnits="userSpaceOnUse"><stop offset="0" stop-color="#56CCF2"/><stop offset=".482" stop-color="#2F80ED"/></linearGradient><linearGradient id="grd11" x1="103.245" x2="200.459" y1="632.428" y2="632.428" gradientUnits="userSpaceOnUse"><stop offset="0" stop-color="#56CCF2"/><stop offset=".482" stop-color="#2F80ED"/></linearGradient><linearGradient id="grd12" x1="296.853" x2="326.8" y1="314.678" y2="314.678" gradientUnits="userSpaceOnUse"><stop offset=".33" stop-color="#56CCF2"/><stop offset=".812" stop-color="#2F80ED"/></linearGradient><linearGradient id="grd13" x1="294.094" x2="322.698" y1="295.049" y2="295.049" gradientUnits="userSpaceOnUse"><stop offset=".33" stop-color="#56CCF2"/><stop offset=".812" stop-color="#2F80ED"/></linearGradient><linearGradient id="grd14" x1="288.169" x2="315.71" y1="270.767" y2="270.767" gradientUnits="userSpaceOnUse"><stop offset=".33" stop-color="#56CCF2"/><stop offset=".812" stop-color="#2F80ED"/></linearGradient><linearGradient id="grd15" x1="285.949" x2="308.697" y1="247.386" y2="247.386" gradientUnits="userSpaceOnUse"><stop offset=".33" stop-color="#56CCF2"/><stop offset=".812" stop-color="#2F80ED"/></linearGradient><linearGradient id="grd16" x1="281.437" x2="301.493" y1="229.233" y2="229.233" gradientUnits="userSpaceOnUse"><stop offset=".33" stop-color="#56CCF2"/><stop offset=".812" stop-color="#2F80ED"/></linearGradient><linearGradient id="grd17" x1="276.445" x2="294.14" y1="206.985" y2="206.985" gradientUnits="userSpaceOnUse"><stop offset=".33" stop-color="#56CCF2"/><stop offset=".812" stop-color="#2F80ED"/></linearGradient><linearGradient id="grd18" x1="273.875" x2="290.079" y1="192.46" y2="192.46" gradientUnits="userSpaceOnUse"><stop offset=".33" stop-color="#56CCF2"/><stop offset=".812" stop-color="#2F80ED"/></linearGradient><linearGradient id="grd19" x1="268.748" x2="282.693" y1="176.198" y2="176.198" gradientUnits="userSpaceOnUse"><stop offset=".33" stop-color="#56CCF2"/><stop offset=".812" stop-color="#2F80ED"/></linearGradient></defs><style>.shp0{fill:rgba(32,89,165,.1)}.shp9{fill:#56ccf2}</style><path d="M915.79 614.81c1.83-.6 4.44-1.42 7.62-2.24 4.17-1.08 7.18-1.87 10.8-2.27 3.39-.38 9.2-1.04 15.73.95 3.33 1.01 3.41 1.67 10.8 4.83 4.55 1.95 6.83 2.91 8.62 3.41 5.67 1.57 10.35 1.41 15.54 1.23 4-.14 6-.2 8.62-.95 1.11-.31 5.43-1.62 9.76-5.21 1.43-1.19 3.22-2.7 4.74-5.31.28-.48 1.17-2.07 1.8-4.36.24-.89 1.03-4.02.38-7.86-.38-2.25-.97-3.09-1.51-3.61-.78-.76-1.7-1.06-2.19-1.23-1.44-.48-2.66-.35-3.22-.28-.8.09-1.89.35-3.32 1.14-2.22 1.24-3.53 2.83-5.21 4.93-1.35 1.68-2.97 3.17-4.07 5.02-.19.32-.61 1.06-1.42 1.33-1.08.36-2.2-.32-2.75-.66-2.13-1.33-3.21-3.57-3.79-5.12-.28-.75-1.58-4.35-1.04-9.85.47-4.84 2.1-8.35 2.65-9.47 3.17-6.45 8.1-9.86 11.18-11.94 1.61-1.09 6.59-4.26 13.93-5.78 1.58-.33 7.03-1.36 14.31-.38 11.89 1.6 20.23 7.43 27.57 12.69 7.01 5.03 12.26 10.15 18.66 16.39 6.25 6.1 8.8 9.26 15.16 13.93 1.45 1.06 6.06 4.39 12.6 7.77 5.53 2.86 9.73 4.36 12.41 5.21 3.57 1.12 5.41 1.69 8.05 1.71 1.71.01 3.15-.21 6.06-.09 3.38.13 3.88.16 4.36.38.84.37 1.68 1 2.75.76.51-.11.9-.38 1.23-.19.32.18.4.68.38 1.33-.11 3-1.71 4.83-1.71 4.83-1.6 1.83-3.76 2.24-6.16 2.65-2.92.5-5.07.3-8.81-.09-2.69-.28-5.61-.6-9.38-1.61-3.03-.81-5.09-1.67-8.34-3.03-3.94-1.66-7.45-3.12-11.56-5.59-3.54-2.12-5.93-4.07-10.71-7.96-1.72-1.4-5.14-4.24-10.33-9-7.08-6.5-6.92-6.94-12.69-12.22-5.81-5.31-9.07-8.26-14.21-11.56-7.01-4.49-12.09-6.15-13.64-6.63-3.11-.96-6.19-1.92-10.42-1.89-6.64.03-11.48 2.44-13.74 3.6-2.75 1.41-6.8 3.54-9.95 8.05-.82 1.17-2.09 3.25-2.94 6.06-1.2 4-1.23 8.45-.47 8.62.38.09.65-.99 1.89-2.75.39-.55 2.52-3.48 6.25-5.49 2.3-1.24 4.3-1.65 5.59-1.89 2.17-.42 5.01-.97 8.24 0 4.36 1.31 6.77 4.58 7.48 5.59 3.18 4.45 2.99 9.31 2.84 13.07-.22 5.71-2.09 9.82-2.65 10.99-.79 1.65-3.24 6.31-8.43 10.14-3.76 2.77-7.15 3.77-11.08 4.93-6.26 1.84-11.32 2.01-14.31 2.08-3.57.09-8.6-.09-14.4-1.33-3.18-.68-7.4-1.58-12.41-3.98-3.97-1.91-6.23-3.69-11.08-4.83-2.7-.63-4.81-.74-5.31-.76-3-.13-5.71.45-10.99 1.61-3.75.82-4.91 1.22-9.19 2.08-1.68.34-3.06.59-3.98.76" class="shp0"/><path fill="url(#grd1)" d="M915.79 603.81c1.83-.6 4.44-1.42 7.62-2.24 4.17-1.08 7.18-1.87 10.8-2.27 3.39-.38 9.2-1.04 15.73.95 3.33 1.01 3.41 1.67 10.8 4.83 4.55 1.95 6.83 2.91 8.62 3.41 5.67 1.57 10.35 1.41 15.54 1.23 4-.14 6-.2 8.62-.95 1.11-.31 5.43-1.62 9.76-5.21 1.43-1.19 3.22-2.7 4.74-5.31.28-.48 1.17-2.07 1.8-4.36.24-.89 1.03-4.02.38-7.86-.38-2.25-.97-3.09-1.51-3.61-.78-.76-1.7-1.06-2.19-1.23-1.44-.48-2.66-.35-3.22-.28-.8.09-1.89.35-3.32 1.14-2.22 1.24-3.53 2.83-5.21 4.93-1.35 1.68-2.97 3.17-4.07 5.02-.19.32-.61 1.06-1.42 1.33-1.08.36-2.2-.32-2.75-.66-2.13-1.33-3.21-3.57-3.79-5.12-.28-.75-1.58-4.35-1.04-9.85.47-4.84 2.1-8.35 2.65-9.47 3.17-6.45 8.1-9.86 11.18-11.94 1.61-1.09 6.59-4.26 13.93-5.78 1.58-.33 7.03-1.36 14.31-.38 11.89 1.6 20.23 7.43 27.57 12.69 7.01 5.03 12.26 10.15 18.66 16.39 6.25 6.1 8.8 9.26 15.16 13.93 1.45 1.06 6.06 4.39 12.6 7.77 5.53 2.86 9.73 4.36 12.41 5.21 3.57 1.12 5.41 1.69 8.05 1.71 1.71.01 3.15-.21 6.06-.09 3.38.13 3.88.16 4.36.38.84.37 1.68 1 2.75.76.51-.11.9-.38 1.23-.19.32.18.4.68.38 1.33-.11 3-1.71 4.83-1.71 4.83-1.6 1.83-3.76 2.24-6.16 2.65-2.92.5-5.07.3-8.81-.09-2.69-.28-5.61-.6-9.38-1.61-3.03-.81-5.09-1.67-8.34-3.03-3.94-1.66-7.45-3.13-11.56-5.59-3.54-2.12-5.93-4.07-10.71-7.96-1.72-1.4-5.14-4.24-10.33-9-7.08-6.5-6.92-6.94-12.69-12.22-5.81-5.31-9.07-8.26-14.21-11.56-7.01-4.49-12.09-6.15-13.64-6.63-3.11-.96-6.19-1.92-10.42-1.89-6.64.03-11.48 2.44-13.74 3.6-2.75 1.41-6.8 3.54-9.95 8.05-.82 1.17-2.09 3.25-2.94 6.06-1.2 4-1.23 8.45-.47 8.62.38.09.65-.99 1.89-2.75.39-.55 2.52-3.48 6.25-5.49 2.3-1.24 4.3-1.65 5.59-1.89 2.17-.42 5.01-.97 8.24 0 4.36 1.31 6.77 4.58 7.48 5.59 3.18 4.45 2.99 9.31 2.84 13.07-.22 5.71-2.09 9.82-2.65 10.99-.79 1.65-3.24 6.31-8.43 10.14-3.76 2.77-7.15 3.77-11.08 4.93-6.26 1.84-11.32 2.01-14.31 2.08-3.57.09-8.6-.09-14.4-1.33-3.18-.68-7.4-1.58-12.41-3.98-3.97-1.91-6.23-3.69-11.08-4.83-2.7-.63-4.81-.74-5.31-.76-3-.13-5.71.45-10.99 1.61-3.75.82-4.91 1.22-9.19 2.08-1.68.34-3.06.59-3.98.76"/><path d="M345.43 414.21c7.17 0 31.18 9.32 31.18 14.69 0 .72-.36 1.43-.72 1.79-1.79 2.15-3.23 3.58-4.3 6.09-10.03 17.56-21.5 55.91-30.82 95.33 1.79.72 3.23 1.43 5.02 2.15 37.99-32.97 82.42-84.58 103.21-121.85 1.43-2.15 1.79-4.3 2.51-6.81.36-.72.72-1.08 1.07-1.43 4.66-2.87 24.73 11.83 28.31 17.56 5.38 8.6-43.72 62.71-90.67 106.08-8.24 7.53-16.48 15.05-25.09 21.86 26.52 36.91 60.56 75.97 88.88 96.76 2.15 1.43 4.3 2.51 6.45 3.58.72 0 1.08.36 1.43 1.08 2.15 4.66-15.05 22.94-21.14 25.8-8.96 4.3-56.98-51.25-94.25-103.21-2.51-3.58-5.02-7.17-7.53-11.11-1.79-.36-3.23-1.08-4.66-1.79-7.17 34.4-12.18 65.94-12.18 80.27 0 2.87-1.08 4.3-4.3 4.3-8.6 0-23.65-7.88-23.65-15.77 0-60.56 36.2-215.37 51.25-215.37z" class="shp0"/><path fill-rule="evenodd" d="M499.16 607.37c.36-.72.36-1.43.36-2.51-10.39 21.86-24.01 40.5-40.14 40.5-14.33 0-22.22-9.32-23.65-22.22-4.66-39.06 15.41-101.06 50.89-120.05 11.11-6.45 24.01 2.15 36.91 8.6.72-1.07 1.43-3.22 1.79-4.66 1.43-2.87 3.23-4.66 5.38-4.66 6.81 0 18.64 6.45 22.94 10.39 3.94 2.87-.36 7.53-1.79 11.11-11.83 31.54-20.79 73.11-25.44 99.27-1.08 5.38 2.15 5.38 5.02 2.51 21.86-21.86 36.91-63.79 46.23-88.16 2.51-6.09 11.47-2.51 9.32 3.58-9.32 24.01-39.06 104.29-69.88 104.29-12.54 0-20.79-12.9-19.71-24.37.7-4.66 1.05-8.96 1.77-13.62zM516 531.4c1.08-3.23 2.15-6.45 3.58-9.32-1.79-2.87-4.66-4.66-8.6-4.66-24.73 0-43.72 61.64-45.87 92.46-.36 3.94-1.08 16.84 4.66 16.84 17.21 0 40.86-78.48 46.23-95.32z" class="shp0"/><path fill-rule="evenodd" d="M649.67 537.13c2.87-5.73 11.83-2.15 9.32 3.94-8.96 20.43-36.91 39.42-58.41 42.65 7.17 36.2 6.45 81.35-2.51 113.96-2.51 9.68-6.81 21.14-12.9 27.24-5.73 6.09-11.11 6.09-17.2 6.09-8.6 0-23.65-5.38-23.65-13.26 0-8.6.72-18.99 2.15-30.46 7.17-67.37 22.94-147.65 45.15-209.65 5.73-15.77 10.75-25.44 14.69-25.44 6.81 0 31.18 9.32 31.18 14.69 0 .72-.36 1.43-.72 1.79-1.79 2.15-3.23 3.58-4.66 6.09-10.03 18.28-21.86 58.41-31.54 98.91 18.64-2.86 42.29-20.07 49.1-36.55zm-62.71 163.41c9.68-30.1 10.39-64.86 6.81-95.68-6.09 30.82-11.47 62.36-14.69 93.89-1.08 11.11-.72 16.84.72 16.84 2.5.01 6.08-11.82 7.16-15.05z" class="shp0"/><path d="M711.31 523.51c-25.08 26.88-47.66 71.32-54.47 104.29-.72 4.3-1.43 8.96-1.43 13.26 0 2.87-1.08 4.3-4.3 4.3-8.6 0-23.65-7.88-23.65-15.77 0-63.07 36.2-215.38 51.25-215.38 7.17 0 31.18 9.32 31.18 14.69 0 .72-.36 1.43-.72 1.79-1.79 2.15-3.23 3.58-4.3 6.09-13.98 24.73-30.46 89.23-40.5 140.48 13.26-28.31 32.61-56.26 51.96-72.39 2.15-1.79 4.3-2.51 6.81-2.51 5.38 0 24.37 6.45 24.37 13.26 0 1.43-.72 2.51-1.08 3.94-1.43 2.87-2.87 5.73-3.94 8.96-11.47 30.82-20.78 69.52-25.44 94.61-.72 5.38 1.43 6.09 5.38 2.51 21.5-21.86 37.99-63.79 47.66-88.16 2.15-6.09 11.47-2.51 8.96 3.58-9.32 24.01-40.5 104.29-71.31 104.29-12.18 0-20.79-12.9-19.35-24.37 3.21-30.81 11.81-67.37 22.92-97.47z" class="shp0"/><path d="M749.65 607.37c5.38-33.69 15.41-72.03 27.59-100.34 1.43-2.87 3.23-4.66 5.38-4.66 6.81 0 18.63 6.45 22.94 10.39 3.94 2.87-.36 7.53-1.43 11.11-12.18 31.54-22.58 73.11-27.24 99.27-1.07 5.38 2.15 5.38 5.02 2.51 21.86-21.86 38.35-63.79 47.66-88.16 2.51-6.09 11.47-2.51 9.32 3.58-9.32 24.01-40.5 104.29-71.32 104.29-12.54 0-20.79-12.9-19.71-24.37.71-4.66 1.07-8.96 1.79-13.62zm64.5-179.54c3.94.36 14.33 5.02 21.14 9.68 5.38 3.58 5.38 8.24 1.43 14.69-6.45 10.75-25.8 39.78-34.4 40.14-20.43.72-1.43-45.87 3.23-54.47 3.23-6.46 6.09-10.04 8.6-10.04z" class="shp0"/><path fill-rule="evenodd" d="M916.38 625.46c-7.73 8.89-18.73 19.9-26.99 19.9-12.54 0-20.79-12.9-19.71-24.37.71-4.66 1.07-8.96 1.79-13.62.36-.72.36-1.44.36-2.51-10.4 21.87-24.01 40.5-40.14 40.5-14.33 0-22.22-9.32-23.65-22.22-4.66-39.06 15.41-101.06 50.89-120.05 11.11-6.45 24.01 2.15 36.91 8.6.71-1.08 1.43-3.23 1.79-4.66 1.44-2.87 3.23-4.66 5.38-4.66 6.81 0 18.64 6.45 22.94 10.39 3.94 2.87-.36 7.53-1.79 11.11-11.82 31.54-20.78 73.11-25.44 99.27-1.08 5.37 3.05 5.02 5.41 3.58 1.21-.73 10.69-10.83 11.66-11.91m-23.88-92.72c-1.79-2.87-4.66-4.66-8.6-4.66-24.73 0-43.72 61.64-45.87 92.46-.36 3.94-1.07 16.84 4.66 16.84 17.2 0 40.85-78.49 46.23-95.33 1.08-3.23 2.15-6.46 3.58-9.31z" class="shp0"/><path fill="url(#grd2)" d="M360.53 391.85c7.17 0 31.18 9.32 31.18 14.69 0 .72-.36 1.43-.72 1.79-1.79 2.15-3.23 3.58-4.3 6.09-10.03 17.56-21.5 55.91-30.82 95.33 1.79.72 3.23 1.43 5.02 2.15 37.99-32.97 82.42-84.58 103.21-121.85 1.43-2.15 1.79-4.3 2.51-6.81.36-.72.72-1.08 1.07-1.43 4.66-2.87 24.73 11.83 28.31 17.56 5.38 8.6-43.72 62.71-90.67 106.08-8.24 7.53-16.48 15.05-25.09 21.86 26.52 36.91 60.56 75.97 88.88 96.76 2.15 1.43 4.3 2.51 6.45 3.58.72 0 1.08.36 1.43 1.08 2.15 4.66-15.05 22.94-21.14 25.8-8.96 4.3-56.98-51.25-94.25-103.21-2.51-3.58-5.02-7.17-7.53-11.11-1.79-.36-3.23-1.08-4.66-1.79-7.17 34.4-12.18 65.94-12.18 80.27 0 2.87-1.08 4.3-4.3 4.3-8.6 0-23.65-7.88-23.65-15.77 0-60.55 36.2-215.37 51.25-215.37z"/><path fill="url(#grd3)" fill-rule="evenodd" d="M514.26 585.01c.36-.72.36-1.43.36-2.51-10.39 21.86-24.01 40.5-40.14 40.5-14.33 0-22.22-9.32-23.65-22.22-4.66-39.06 15.41-101.06 50.89-120.05 11.11-6.45 24.01 2.15 36.91 8.6.72-1.07 1.43-3.22 1.79-4.66 1.43-2.87 3.23-4.66 5.38-4.66 6.81 0 18.64 6.45 22.94 10.39 3.94 2.87-.36 7.53-1.79 11.11-11.83 31.54-20.79 73.11-25.44 99.27-1.08 5.38 2.15 5.38 5.02 2.51 21.86-21.86 36.91-63.79 46.23-88.16 2.51-6.09 11.47-2.51 9.32 3.58C592.75 542.73 563 623 532.18 623c-12.54 0-20.79-12.9-19.71-24.37.72-4.66 1.08-8.96 1.79-13.62zm16.85-75.97c1.08-3.23 2.15-6.45 3.58-9.32-1.79-2.87-4.66-4.66-8.6-4.66-24.73 0-43.72 61.64-45.87 92.46-.36 3.94-1.08 16.84 4.66 16.84 17.2.01 40.85-78.48 46.23-95.32z"/><path fill="url(#grd4)" fill-rule="evenodd" d="M664.77 514.77c2.87-5.73 11.83-2.15 9.32 3.94-8.96 20.43-36.91 39.42-58.41 42.65 7.17 36.2 6.45 81.35-2.51 113.96-2.51 9.68-6.81 21.14-12.9 27.24-5.73 6.09-11.11 6.09-17.2 6.09-8.6 0-23.65-5.38-23.65-13.26 0-8.6.72-18.99 2.15-30.46 7.17-67.37 22.94-147.65 45.15-209.65 5.73-15.77 10.75-25.44 14.69-25.44 6.81 0 31.18 9.32 31.18 14.69 0 .72-.36 1.43-.72 1.79-1.79 2.15-3.23 3.58-4.66 6.09-10.03 18.28-21.86 58.41-31.54 98.91 18.64-2.86 42.3-20.06 49.1-36.55zm-62.71 163.42c9.68-30.1 10.39-64.86 6.81-95.68-6.09 30.82-11.47 62.36-14.69 93.89-1.08 11.11-.72 16.84.72 16.84 2.5 0 6.09-11.83 7.16-15.05z"/><path fill="url(#grd5)" d="M726.41 501.15c-25.08 26.88-47.66 71.32-54.47 104.29-.72 4.3-1.43 8.96-1.43 13.26 0 2.87-1.08 4.3-4.3 4.3-8.6 0-23.65-7.88-23.65-15.77 0-63.07 36.2-215.38 51.25-215.38 7.17 0 31.18 9.32 31.18 14.69 0 .72-.36 1.43-.72 1.79-1.79 2.15-3.23 3.58-4.3 6.09-13.98 24.73-30.46 89.23-40.5 140.48 13.26-28.31 32.61-56.26 51.96-72.39 2.15-1.79 4.3-2.51 6.81-2.51 5.38 0 24.37 6.45 24.37 13.26 0 1.43-.72 2.51-1.08 3.94-1.43 2.87-2.87 5.73-3.94 8.96-11.47 30.82-20.78 69.52-25.44 94.61-.72 5.38 1.43 6.09 5.38 2.51 21.5-21.86 37.99-63.79 47.66-88.16 2.15-6.09 11.47-2.51 8.96 3.58-9.32 24.01-40.5 104.29-71.31 104.29-12.18 0-20.79-12.9-19.35-24.37 3.21-30.81 11.81-67.36 22.92-97.47z"/><path fill="url(#grd6)" d="M764.75 585.01c5.38-33.69 15.41-72.03 27.59-100.34 1.43-2.87 3.23-4.66 5.38-4.66 6.81 0 18.63 6.45 22.94 10.39 3.94 2.87-.36 7.53-1.43 11.11-12.18 31.54-22.58 73.11-27.24 99.27-1.07 5.38 2.15 5.38 5.02 2.51 21.86-21.86 38.35-63.79 47.66-88.16 2.51-6.09 11.47-2.51 9.32 3.58-9.32 24.01-40.5 104.29-71.32 104.29-12.54 0-20.79-12.9-19.71-24.37.72-4.66 1.07-8.96 1.79-13.62zm64.51-179.54c3.94.36 14.33 5.02 21.14 9.68 5.38 3.58 5.38 8.24 1.43 14.69-6.45 10.75-25.8 39.78-34.4 40.14-20.43.72-1.43-45.87 3.23-54.47 3.22-6.46 6.09-10.04 8.6-10.04z"/><path fill="url(#grd7)" fill-rule="evenodd" d="M928.67 608.35c-7.73 8.9-15.91 14.66-24.17 14.66-12.54 0-20.79-12.9-19.71-24.37.71-4.66 1.07-8.96 1.79-13.62.36-.72.36-1.44.36-2.51-10.4 21.87-24.01 40.5-40.14 40.5-14.33 0-22.22-9.32-23.65-22.22-4.66-39.06 15.41-101.06 50.89-120.05 11.11-6.45 24.01 2.15 36.91 8.6.71-1.08 1.43-3.23 1.79-4.66 1.44-2.87 3.23-4.66 5.38-4.66 6.81 0 18.64 6.45 22.94 10.39 3.94 2.87-.36 7.53-1.79 11.11-11.82 31.54-20.78 73.11-25.44 99.27-1.08 5.37 3.05 5.02 5.41 3.58 1.21-.74 4.33-.32 5.3-1.4m-17.52-103.24c-1.79-2.87-4.66-4.66-8.6-4.66-24.73 0-43.72 61.64-45.87 92.46-.36 3.94-1.07 16.84 4.66 16.84 17.2 0 40.85-78.49 46.23-95.33 1.07-3.23 2.15-6.45 3.58-9.31z"/><path fill="url(#grd8)" d="M248.53 598.7l8.97-37.37c2.87-12.48 5.55-25 8.11-37.55 2.53-12.56 5.17-25.1 7.81-37.63l4.04-18.8 4.13-18.75-.04.37 1.84-9.46c.59-3.09 1.12-6.09 1.62-9.16 1-6.1 1.89-12.23 2.72-18.37.82-6.14 1.62-12.29 2.35-18.45l1.07-9.24.98-9.01.01-.23c.94-9.45 1.91-18.9 2.76-28.34.21-2.36.41-4.71.58-7.06.17-2.34.33-4.7.33-6.93-.06-4.64-.32-9.34-.79-13.98-.92-9.31-2.82-18.5-5.01-27.71-1.08-4.61-2.21-9.25-3.2-13.94l-2.96-13.95-11.48-55.82c-1.95-9.28-3.98-18.54-6.41-27.62-2.43-9.07-5.48-17.92-10.5-25.58-.65-.94-1.27-1.9-1.94-2.83l-2.13-2.72c-1.45-1.82-3.01-3.61-4.55-5.36-3.1-3.49-6.39-6.78-9.93-9.79a82.607 82.607 0 00-23.71-14.29c-8.65-3.38-17.87-5.31-27.18-5.99-9.32-.63-18.73-.01-27.93 1.76-18.35 3.66-35.99 11.85-50.06 24.41-3.5 3.14-6.77 6.55-9.77 10.19a89.835 89.835 0 00-8.04 11.64c-4.75 8.17-8.26 17.08-10.5 26.31 1.93-9.29 5.07-18.4 9.67-26.78 2.29-4.19 4.9-8.21 7.83-12 2.94-3.78 6.17-7.33 9.66-10.62 6.95-6.61 14.96-12.07 23.49-16.49 8.56-4.38 17.72-7.55 27.12-9.62 9.42-1.99 19.1-2.86 28.75-2.32 9.64.56 19.25 2.44 28.35 5.85 9.08 3.43 17.64 8.39 25.06 14.68 3.73 3.12 7.19 6.54 10.43 10.12 1.62 1.8 3.19 3.58 4.72 5.46l2.29 2.87c.73.99 1.41 2.01 2.11 3.02.73.99 1.32 2.08 1.95 3.13.63 1.06 1.27 2.11 1.78 3.23.54 1.1 1.1 2.19 1.62 3.3l1.41 3.38c.5 1.12.88 2.27 1.28 3.41.4 1.14.82 2.28 1.2 3.43.69 2.31 1.45 4.6 2.07 6.92 2.57 9.25 4.6 18.57 6.59 27.87l11.64 55.8 2.92 13.94c.96 4.62 2.06 9.2 3.14 13.85 2.17 9.27 4.11 18.74 5.03 28.35.48 4.81.73 9.6.78 14.46-.06 5-.58 9.67-1.02 14.44-.94 9.48-1.98 18.92-3 28.36l.01-.23-.08.82-.06.58-.13 1.16-.27 2.32-.55 4.64-1.15 9.26c-.8 6.17-1.61 12.34-2.55 18.5-.93 6.16-1.92 12.31-3.04 18.45-.55 3.06-1.16 6.17-1.78 9.17l-1.92 8.79-.04.37c-1.44 6.29-2.98 12.48-4.44 18.72l-4.33 18.71c-2.87 12.48-5.61 24.99-8.52 37.47-2.89 12.49-5.9 24.95-9.1 37.36-3.27 12.42-6.7 24.77-10.11 37.12z"/><path d="M167.72 295.91c-3.73-15.46-4.82-31.6-3.33-47.55.77-7.97 2.17-15.9 4.22-23.66s4.77-15.35 8.02-22.71c.85-1.82 1.65-3.67 2.57-5.46l1.35-2.7 1.43-2.66c1.93-3.55 4.01-6.97 6.13-10.36 4.25-6.8 9.02-13.42 14.65-19.31 5.62-5.89 12.03-11.03 18.97-15.3 6.92-4.3 14.49-7.56 22.01-10.24 7.68-2.74 15.55-4.6 23.5-5.94 7.95-1.33 16-2.05 24.06-2.2 7.94-.1 15.97-.23 24.05.49 4.03.37 8.07.95 12.04 1.84 3.97.89 7.88 2.12 11.66 3.61a86.19 86.19 0 0121.08 11.99c6.38 4.98 12.03 10.78 17.16 16.91 2.56 3.08 5.01 6.21 7.43 9.37 2.43 3.17 4.76 6.42 6.92 9.78 2.17 3.35 4.2 6.78 6.11 10.28 1.88 3.51 3.63 7.09 5.24 10.72-3.68-7.04-7.86-13.8-12.49-20.21-2.33-3.2-4.74-6.33-7.29-9.35-2.55-3.03-5.13-6.05-7.78-8.97-5.28-5.86-10.96-11.31-17.28-15.9a92.903 92.903 0 00-9.88-6.2c-3.42-1.85-6.99-3.41-10.62-4.76-7.27-2.7-14.92-4.15-22.68-4.74-7.77-.59-15.65-.35-23.58-.13-7.82.25-15.64.94-23.34 2.28-7.7 1.33-15.33 3.19-22.61 5.82-7.44 2.61-14.56 5.65-21.17 9.7-6.63 4.01-12.69 8.9-18.12 14.41-5.44 5.52-10.1 11.78-14.37 18.38-4.32 6.63-8.25 13.35-11.62 20.45-6.67 14.19-11.32 29.39-13.35 45.02-2.13 15.66-1.74 31.64.91 47.3z" class="shp9"/><path d="M380.49 68.83c-13.99-1.68-28.04-1.86-41.79-.1-6.87.93-13.67 2.23-20.31 4.14-6.67 1.83-13.06 4.35-19.4 7.19-6.39 2.81-12.55 5.9-18.33 9.6-5.79 3.68-11.2 7.95-15.98 12.87-4.77 4.93-8.9 10.49-12.32 16.51-3.42 6.03-5.99 12.56-7.91 19.35.83-7.01 2.81-13.92 5.72-20.45.72-1.64 1.55-3.22 2.42-4.79l1.29-2.36 1.44-2.28c.49-.75.94-1.54 1.48-2.26l1.61-2.17c1.04-1.48 2.26-2.81 3.4-4.2 1.16-1.38 2.45-2.64 3.68-3.97 1.33-1.22 2.61-2.5 3.99-3.65 1.38-1.16 2.75-2.33 4.2-3.4 1.42-1.12 2.9-2.13 4.38-3.16 5.98-4.01 12.42-7.27 18.87-10.2 6.53-2.82 13.27-5.45 20.22-7.19 6.95-1.71 14.02-2.96 21.15-3.45 14.23-1.08 28.58.25 42.19 3.97z" class="shp9"/><path fill="url(#grd9)" d="M280.24 608.93c5.45-19.73 10.33-39.64 13.73-59.77 1.69-10.06 3.03-20.22 4.63-30.35 1.57-10.13 3.33-20.23 5.19-30.32.93-5.04 1.92-10.08 2.95-15.11l3.18-15.02c2.1-9.97 3.73-20.01 5.16-30.12 1.42-10.09 2.61-20.24 3.75-30.4 1.13-10.17 2.27-20.35 3.33-30.51 1.05-10.15 2.16-20.35 2.65-30.43.11-2.52.14-4.98.04-7.49-.09-2.53-.21-5.06-.39-7.58-.35-5.05-.91-10.07-1.61-15.09-1.42-10.01-3.61-19.99-5.84-29.94-2.31-9.91-4.97-19.74-8.06-29.45-3.07-9.71-6.59-19.29-10.14-28.89-3.57-9.61-6.9-19.34-10.06-29.08-1.58-4.87-3.12-9.75-4.82-14.55-1.7-4.8-3.55-9.55-5.87-14.07-4.58-9.08-11.41-16.89-19.05-23.68 3.99 3.21 7.8 6.67 11.24 10.49 3.45 3.82 6.46 8.05 8.97 12.56 2.52 4.51 4.58 9.25 6.47 14.03 1.89 4.78 3.62 9.61 5.37 14.42 3.44 9.65 6.98 19.21 10.8 28.7 3.8 9.51 7.48 19.11 10.79 28.85 1.65 4.87 3.21 9.78 4.65 14.72 1.43 4.95 2.74 9.93 3.96 14.93 2.37 10 4.69 20.01 6.26 30.26.79 5.12 1.35 10.27 1.74 15.43.19 2.58.33 5.17.43 7.75.11 2.6.09 5.27-.01 7.86-.47 10.38-1.54 20.55-2.56 30.76-1.1 10.2-2.28 20.36-3.45 30.54-1.19 10.17-2.37 20.37-3.93 30.54-1.56 10.15-3.33 20.3-5.56 30.35-2.23 10.03-4.55 19.94-6.59 29.96-2.06 10.01-3.94 20.06-5.79 30.12-1.87 10.05-3.45 20.16-5.45 30.25-2.06 10.07-4.55 20.02-7.22 29.92-1.35 4.95-2.75 9.88-4.22 14.78-1.48 4.89-3.04 9.77-4.67 14.63z"/><path fill="none" stroke="rgba(32, 89, 165, 0.1)" stroke-width="3" d="M69.28 628.51c9.71-7.21 22.58-14.9 38.65-20.46 13.45-4.66 24.53-6.23 29.56-6.82 18.24-2.13 33.12-.13 42.06 1.14 21.41 3.02 25.94 7.28 38.65 4.55 10.76-2.31 11.77-6.27 19.33-5.68 13.39 1.04 14.42 13.82 29.56 18.19 9.39 2.71 9.8-1.97 30.69-1.14 5.25.21 14.14.62 25.01 3.41 10.22 2.63 14.18 5.31 23.87 9.09 7.65 2.99 19.07 6.73 34.11 9.09"/><path fill="url(#grd10)" d="M69.28 623.51c10.74-8.52 22.84-15.35 35.66-20.42 12.85-4.97 26.47-8.18 40.29-9.09 6.91-.51 13.85-.45 20.75.05 6.92.51 13.72 1.4 20.56 2.53 3.41.58 6.8 1.29 10.15 2.04 3.35.74 6.66 1.55 9.89 1.95 3.23.4 6.42.32 9.64-.29 3.24-.58 6.36-1.48 9.33-2.84 1.5-.66 3-1.47 4.77-2.17 1.77-.7 3.82-1.09 5.73-1.07.95.01 1.89.07 2.82.23l1.4.2 1.38.37c1.85.47 3.59 1.36 5.19 2.34 3.15 2.09 5.55 4.78 7.92 7.13 2.37 2.37 4.82 4.45 7.62 5.99 1.4.76 2.86 1.41 4.39 1.9 1.51.55 3.08.91 4.58 1.04 1.51.14 3.02 0 4.66-.27 1.63-.27 3.36-.6 5.09-.86 3.48-.5 6.99-.72 10.47-.74l2.61.02 2.6.1c1.73.06 3.44.17 5.17.29 6.91.49 13.81 1.54 20.51 3.34 3.35.89 6.67 1.96 9.89 3.26 3.22 1.3 6.32 2.79 9.42 4.19 6.19 2.84 12.57 5.27 19.09 7.28 3.26 1.01 6.56 1.9 9.88 2.71 3.32.83 6.66 1.55 10.03 2.19-13.6-1.68-27.01-5.18-39.78-10.37-3.19-1.3-6.31-2.69-9.48-3.85-3.17-1.17-6.4-2.1-9.7-2.86-6.58-1.54-13.3-2.45-20.06-2.76-6.79-.29-13.56-.37-20.13.68-1.65.27-3.29.61-5.02.92-1.73.32-3.65.54-5.56.38-1.91-.15-3.71-.56-5.43-1.14-1.74-.53-3.43-1.25-5.05-2.1-3.25-1.71-6.06-4.12-8.53-6.58-2.48-2.46-4.73-4.89-7.32-6.59-1.31-.78-2.66-1.48-4.14-1.84l-1.1-.29-1.14-.15c-.76-.13-1.53-.17-2.29-.18-1.51 0-2.89.28-4.3.83-1.42.56-2.94 1.38-4.57 2.1-3.27 1.48-6.77 2.48-10.28 3.09-3.52.66-7.25.74-10.81.27-3.57-.47-6.92-1.32-10.25-2.06-3.33-.76-6.64-1.46-9.97-2.09-6.66-1.19-13.44-2.17-20.17-2.76-6.75-.56-13.53-.77-20.29-.43-6.77.31-13.5 1.16-20.15 2.47-6.66 1.3-13.23 3.1-19.65 5.34-6.43 2.23-12.72 4.89-18.78 8.02-3.03 1.56-6.01 3.24-8.93 5.01-2.92 1.72-5.79 3.58-8.61 5.54z"/><path fill="url(#grd11)" d="M104.91 639.8c2.08-3.89 4.68-7.53 7.83-10.75 1.6-1.58 3.35-3.06 5.29-4.3 1.94-1.25 4.12-2.19 6.43-2.78 1.16-.28 2.35-.46 3.57-.52 1.23-.07 2.55.12 3.71.4 2.33.59 4.37 1.4 6.45 2.17 4.12 1.6 8.16 3.27 12.24 4.9l12.14 5.05c2.01.85 4.03 1.7 6.03 2.47 2.01.74 4.04 1.45 6.1 2.08 8.26 2.48 16.9 3.73 25.7 4.32-8.75 1.08-17.76.7-26.49-1.3-4.38-.93-8.64-2.51-12.74-4.04-4.11-1.58-8.18-3.24-12.25-4.87l-12.13-5.09c-2-.84-4.02-1.72-5.93-2.29-.96-.28-1.83-.43-2.79-.44-.98-.03-1.98.05-2.96.22-3.96.7-7.75 2.81-11.06 5.49-3.36 2.66-6.34 5.89-9.14 9.28z"/><path d="M155.94 287.63c.35-2.65 1.04-5.19 1.93-7.69.46-1.25.97-2.47 1.6-3.68.64-1.21 1.33-2.39 2.44-3.53.3-.28.62-.56 1.06-.81.18-.13.49-.24.74-.34.31-.07.61-.16.97-.13.33 0 .75.09 1.05.25.32.15.55.33.74.51.38.35.64.69.84 1.01.81 1.28 1.28 2.47 1.78 3.7.98 2.43 1.79 5.03 2.02 7.68l-4.12-6.62c-.68-1.08-1.33-2.25-1.99-3.11a2.48 2.48 0 00-.43-.46c-.05-.04-.08-.05-.06-.03l.11.04c.14-.05-.28.12-.6.47-.72.71-1.42 1.75-2.07 2.79-.66 1.05-1.29 2.15-1.93 3.26-1.31 2.21-2.57 4.49-4.08 6.69zm83.6-29.12c.35-2.65 1.04-5.19 1.93-7.69.46-1.25.97-2.47 1.6-3.68.64-1.21 1.33-2.39 2.44-3.53.3-.28.62-.56 1.06-.81.18-.13.49-.24.74-.34.31-.07.61-.16.97-.13.33 0 .75.09 1.05.25.32.15.55.33.74.51.38.35.64.69.84 1.01.81 1.28 1.28 2.47 1.78 3.7.98 2.43 1.79 5.03 2.02 7.68l-4.12-6.62c-.68-1.08-1.33-2.25-1.99-3.11a2.48 2.48 0 00-.43-.46c-.05-.04-.08-.05-.06-.03l.11.04c.14-.05-.28.12-.6.47-.72.71-1.42 1.75-2.07 2.79-.66 1.05-1.29 2.15-1.93 3.26-1.31 2.22-2.57 4.49-4.08 6.69z" class="shp9"/><path d="M152.4 279.04c-.05-3.85.91-7.77 3.01-11.25 1.04-1.7 2.25-3.17 3.38-4.7.58-.77 1.2-1.51 1.84-2.25.66-.75 1.27-1.47 2.2-2.23.25-.19.53-.39.97-.57.21-.09.51-.16.74-.18.22-.02.38 0 .57 0 .75.02 1.4.26 1.98.54 1.11.61 1.89 1.41 2.56 2.22.66.83 1.21 1.68 1.7 2.56.49.88.92 1.72 1.3 2.72.36 1 .59 1.9.83 2.81l.74 2.74c.5 1.83 1.03 3.66 1.42 5.55-1.01-1.63-1.91-3.33-2.8-5.03-.42-.86-.82-1.73-1.22-2.61-.4-.87-.73-1.78-1.13-2.53-.86-1.49-1.86-3.15-3.01-4.36-.57-.61-1.18-1.16-1.76-1.44-.28-.12-.54-.22-.74-.2l-.14-.01c-.01.01.06-.01.05-.01 0 0-.12.07-.25.17-.56.43-1.23 1.13-1.83 1.79-.62.68-1.21 1.4-1.84 2.1-1.26 1.42-2.51 2.86-3.66 4.25-2.17 2.83-3.75 6.28-4.91 9.92zm80.21-29.39c-.55-3.81-.11-7.83 1.52-11.54.81-1.83 1.81-3.44 2.74-5.1.48-.83 1-1.65 1.53-2.47.56-.83 1.07-1.62 1.89-2.49.22-.22.47-.45.89-.69.2-.12.49-.23.71-.28.22-.05.37-.05.57-.08.74-.08 1.43.08 2.03.28 1.18.46 2.06 1.15 2.83 1.87.76.73 1.42 1.51 2.02 2.31.6.81 1.14 1.58 1.64 2.53.48.94.83 1.8 1.19 2.68l1.09 2.62c.73 1.75 1.5 3.49 2.14 5.32-1.22-1.49-2.33-3.05-3.43-4.62-.53-.8-1.04-1.61-1.55-2.43-.51-.81-.96-1.67-1.45-2.36-1.04-1.37-2.26-2.88-3.55-3.93-.64-.53-1.32-.99-1.93-1.19-.29-.08-.56-.14-.76-.1l-.14.01c-.01.01.05-.02.05-.02s-.11.08-.22.2c-.5.5-1.07 1.28-1.58 2.01-.53.75-1.02 1.54-1.55 2.32-1.06 1.57-2.11 3.16-3.08 4.69-1.82 3.07-2.92 6.7-3.6 10.46z" class="shp9"/><path d="M150.88 261.36c1-4.58 2.58-9.02 4.56-13.29.98-2.14 2.03-4.23 3.5-6.3.76-1.01 1.76-2.07 3.16-2.69 1.37-.61 2.85-.72 4.23-.52 1.37.22 2.62.74 3.75 1.38 1.06.6 2.26 1.48 3.07 2.56.82 1.07 1.38 2.18 1.9 3.26.52 1.09.96 2.18 1.37 3.28 1.66 4.37 3.08 8.8 4.28 13.33-2.36-4.05-4.38-8.25-6.43-12.39-1.06-2.02-2.02-4.18-3.32-5.69-.64-.75-1.35-1.27-2.31-1.8-.89-.49-1.84-.84-2.77-.97-.91-.15-1.84-.08-2.6.24-.75.3-1.42.96-2.1 1.76-1.35 1.63-2.47 3.68-3.66 5.63-2.32 3.97-4.46 8.06-6.63 12.21z" class="shp9"/><path d="M152.4 265.91c1.3-3.07 2.85-5.98 4.49-8.83.81-1.44 1.65-2.84 2.55-4.24.45-.7.92-1.39 1.44-2.09.54-.69 1.08-1.39 1.92-2.07.41-.33.94-.65 1.58-.83.65-.17 1.26-.23 2.02-.04.7.21 1.17.55 1.57.86.39.32.74.64 1.04.98 1.21 1.33 2.15 2.7 3.04 4.13 1.78 2.84 3.21 5.89 4.11 9.1-2.02-2.66-3.96-5.25-6.01-7.73-1.05-1.22-2.08-2.47-3.16-3.5-.51-.5-1.15-.96-1.36-.98a1.1 1.1 0 00-.41.04c-.15.04-.34.15-.57.33-.45.34-.95.93-1.43 1.52-.49.6-.96 1.25-1.44 1.89-.97 1.3-1.93 2.63-2.95 3.92-2.01 2.6-4.09 5.15-6.43 7.54zm77.79-32.79c1.3-3.07 2.85-5.98 4.49-8.83.81-1.44 1.65-2.84 2.55-4.24.45-.7.92-1.39 1.44-2.09.54-.69 1.08-1.39 1.92-2.07.41-.33.94-.65 1.58-.83.65-.17 1.26-.23 2.02-.04.7.21 1.17.55 1.57.86.39.32.74.64 1.04.98 1.21 1.33 2.15 2.7 3.04 4.13 1.78 2.84 3.21 5.89 4.11 9.1-2.02-2.66-3.96-5.25-6.01-7.73-1.05-1.22-2.08-2.47-3.16-3.5-.51-.5-1.15-.96-1.36-.98a1.1 1.1 0 00-.41.04c-.15.04-.34.15-.57.33-.45.34-.95.93-1.43 1.52-.49.6-.96 1.25-1.44 1.89-.97 1.3-1.93 2.63-2.95 3.92-2 2.61-4.09 5.16-6.43 7.54zm-79.31 1.96c2.47-3.85 5.49-7.35 8.87-10.49 1.68-1.59 3.46-3.02 5.36-4.41.96-.69 1.98-1.31 3.15-1.85.59-.26 1.23-.5 1.97-.63.73-.13 1.6-.1 2.31.11 1.49.38 2.68 1.41 3.49 2.39.82 1.01 1.42 2.05 1.98 3.08.55 1.03 1.05 2.06 1.55 3.08.51 1.01 1 2.12 1.39 3.21 1.63 4.37 2.46 9.01 2.27 13.59-1.06-4.45-2.49-8.69-4.42-12.66-.5-1-1.01-1.92-1.57-2.91-.56-.98-1.11-1.96-1.69-2.9-1.13-1.87-2.35-3.67-3.79-3.99-1.23-.49-3.27.69-5.07 1.83-1.85 1.16-3.64 2.52-5.44 3.84-3.55 2.72-6.94 5.67-10.36 8.71z" class="shp9"/><path d="M148.36 220.94c2.9-4.6 6.7-8.67 11.08-12.02 2.18-1.7 4.57-3.14 7.04-4.41 2.5-1.26 5.12-2.18 7.75-3.02.68-.2 1.4-.38 2.22-.48.41-.04.86-.06 1.33-.02.47.05.98.18 1.39.37.84.32 1.58.94 2.15 1.58.58.66.94 1.35 1.27 2.04.6 1.38.98 2.71 1.35 4.04.37 1.32.68 2.63 1 3.94 1.28 5.21 2.75 10.36 4.34 15.56-2.74-4.69-4.87-9.75-6.59-14.9-.91-2.53-1.59-5.23-2.67-7.41-.56-1.07-1.16-1.84-1.98-2.14-.36-.16-.72-.18-1.25-.11-.52.07-1.11.23-1.72.41-5.08 1.45-9.85 3.6-14.3 6.46-4.44 2.86-8.55 6.29-12.41 10.11z" class="shp9"/><path d="M151.89 223.97c2.79-3.17 6.1-5.87 9.7-8.13 1.8-1.14 3.58-2.15 5.49-3.17.96-.5 1.97-.94 3.09-1.3 1.11-.35 2.41-.57 3.74-.37 1.31.23 2.48.78 3.48 1.53.99.76 1.77 1.66 2.42 2.59.64.94 1.19 1.9 1.67 2.87.49.97.91 1.95 1.3 2.94.79 1.97 1.46 3.93 2.11 5.95.6 2.03 1.1 4.09 1.36 6.19-.9-1.91-1.76-3.8-2.72-5.63l-2.87-5.52c-.99-1.8-1.93-3.62-3.12-5.1-1.15-1.51-2.55-2.61-4.09-2.85-1.46-.29-3.31.44-5.13 1.26-1.84.81-3.71 1.8-5.58 2.66-3.69 1.79-7.26 3.86-10.85 6.08z" class="shp9"/><path d="M152.91 242.16c1.47-2.97 3.51-5.66 5.87-8.05a61.72 61.72 0 013.68-3.37c1.31-1.05 2.68-2.19 4.71-2.76 1.01-.29 2.16-.24 3.18.03 1.04.29 1.9.84 2.67 1.43 1.48 1.24 2.5 2.76 3.31 4.31 1.58 3.13 2.27 6.49 2.55 9.82l-.02-.08c.32 1.74.64 3.48.84 5.25-.81-1.59-1.5-3.22-2.19-4.85l-.02-.08c-.88-3.1-1.99-6.11-3.56-8.73-.78-1.29-1.71-2.48-2.76-3.32-1.08-.81-2.16-1.19-3.29-.9-1.17.26-2.49 1.13-3.77 2.03-1.27.92-2.64 1.9-3.9 2.85-2.56 1.92-4.94 4.1-7.3 6.42zm2.52-48.51c5.33-2.48 10.68-4.81 16.01-7.19 2.65-1.22 5.32-2.37 7.96-3.61 1.32-.61 2.65-1.21 4.05-1.8 1.41-.55 2.95-1.15 4.8-1.15 1.86.03 3.57.8 4.91 1.89 1.34 1.1 2.3 2.45 3.06 3.82.76 1.38 1.34 2.79 1.85 4.2.53 1.41.96 2.83 1.36 4.25 1.56 5.66 2.97 11.4 3.5 17.28-.91-2.8-1.79-5.58-2.78-8.32l-2.95-8.23c-1.03-2.69-2.01-5.43-3.44-7.75-.7-1.15-1.49-2.21-2.43-2.95-.93-.73-2.04-1.18-3.12-1.18-1.09-.04-2.37.37-3.68.87-1.31.51-2.64 1.12-4 1.67-2.72 1.1-5.45 2.21-8.22 3.17-5.53 1.99-11.15 3.72-16.88 5.03z" class="shp9"/><path d="M160.99 181.02c5.34-3.29 10.83-6.33 16.36-9.28 2.76-1.5 5.51-2.93 8.52-4.18 1.51-.61 3.1-1.1 4.78-1.39 1.67-.3 3.43-.32 5.15-.04 3.35.59 6.69 2.2 8.87 5.1 1.06 1.47 1.69 3.11 2.13 4.67.46 1.57.76 3.14 1.04 4.69 1.05 6.2 1.99 12.36 2.66 18.62-1.89-5.98-3.48-12.08-4.95-18.12-.82-2.96-1.49-6.07-3.15-8.15-.83-1.02-1.91-1.92-3.14-2.56-.61-.32-1.25-.59-1.92-.81-.67-.22-1.38-.38-2.05-.49-2.74-.52-5.61.1-8.42 1.12-2.83 1-5.67 2.41-8.53 3.64-5.7 2.55-11.45 4.99-17.35 7.18zm-5.56 21.73c3.52-2.76 7.53-4.9 11.75-6.5 2.09-.8 4.17-1.52 6.39-2.16 2.19-.59 4.68-1.04 7.25-.47 1.26.3 2.43.83 3.51 1.55 1.07.73 1.96 1.65 2.69 2.6 1.43 1.94 2.49 3.92 3.46 5.93 2.06 3.96 3.66 8.27 4.37 12.68-1.91-4.06-4-7.85-6.41-11.54-1.2-1.84-2.3-3.75-3.63-5.29-1.28-1.56-2.84-2.59-4.67-3.03-1.78-.46-3.8-.16-5.88.3-2.08.44-4.21 1.1-6.35 1.63-4.21 1.15-8.34 2.62-12.48 4.3zm-88.42-29.06c2.97-3.69 6.28-7.08 9.92-10.15 1.81-1.55 3.74-2.97 5.83-4.26 1.05-.64 2.16-1.2 3.38-1.66 1.22-.42 2.58-.86 4.3-.5.21.06.43.13.64.2.21.1.41.22.62.34.19.09.45.35.64.55.18.21.29.4.42.61.41.77.57 1.45.7 2.09.25 1.29.35 2.49.41 3.7.08 2.4.1 4.76.01 7.12-.13 4.7-.47 9.41-1.1 14.1-.62-4.7-.93-9.38-1.24-14.06-.18-2.33-.26-4.67-.5-6.95-.12-1.13-.22-2.27-.45-3.29-.1-.5-.27-.97-.41-1.23-.03-.03-.06-.1-.08-.11-.03.01.06.02-.03-.01a.507.507 0 01-.16-.09 1.17 1.17 0 01-.2-.05c-.59-.16-1.62.01-2.59.35-.99.34-1.98.85-2.97 1.37-1.99 1.05-3.89 2.36-5.81 3.65-3.8 2.63-7.51 5.5-11.33 8.28z" class="shp9"/><path d="M71.18 155.88c3.35-2.24 6.86-4.17 10.52-5.85 3.67-1.67 7.41-3.17 11.65-3.83 1.07-.14 2.19-.21 3.47.04.62.12 1.35.41 1.99.94.31.3.6.62.8 1.03.19.4.3.83.33 1.19.06.74-.03 1.29-.1 1.81l-.23 1.48c-.14.96-.26 1.9-.34 2.85-.3 3.83.01 7.74.72 11.7-1.9-3.55-2.94-7.62-3.07-11.75-.04-1.03-.02-2.08.07-3.1.07-.99.22-2.1.12-2.65-.05-.26-.09-.25-.2-.36-.14-.08-.35-.2-.71-.25-.68-.13-1.58-.1-2.47.03-1.81.21-3.69.73-5.55 1.26-1.88.53-3.73 1.16-5.61 1.77-3.77 1.25-7.52 2.58-11.39 3.69z" class="shp9"/><path d="M79.91 142.88c4.57-.59 9.04-1.35 13.32-2.61 2.15-.65 4.19-1.37 6.3-2.29 1.08-.44 2.25-.88 3.68-1.03a5.84 5.84 0 012.25.21c.39.11.73.26 1.11.47.39.22.79.58 1.06.92.51.68.76 1.29 1.01 1.88.23.58.43 1.15.6 1.72.34 1.13.66 2.25.93 3.37.52 2.25 1.06 4.48 1.46 6.75.42 2.26.8 4.57.84 6.94-.01 2.34-.2 4.66-.71 6.91-.16-2.3-.36-4.57-.76-6.79-.36-2.18-1.04-4.34-1.65-6.53l-1.92-6.54c-.33-1.08-.64-2.16-1-3.2-.33-1.01-.76-2.15-1.15-2.65a.865.865 0 00-.22-.21c-.12-.07-.3-.16-.46-.21-.33-.11-.71-.15-1.13-.12-.86.05-1.87.4-2.92.76-2.15.76-4.45 1.5-6.75 1.9-4.62.89-9.33 1-13.89.35zm14.89-14.91c4.04-.73 8.04-1.32 12.01-2 1.98-.36 3.96-.67 5.94-1.07.99-.2 1.99-.37 3.06-.51.54-.07 1.11-.13 1.74-.11.63.01 1.38.13 2.08.46 1.36.65 2.27 2.07 2.56 3.32.28 1.24.29 2.33.28 3.38-.08 2.1-.19 4.09-.33 6.11-.11 2.01-.24 4.02-.29 6.04-.05 2.02-.09 4.05-.27 6.11-.49-1.99-.84-4.01-1.2-6.03-.3-2.03-.48-4.08-.58-6.13-.13-2.04-.08-4.11-.17-6.07-.04-.97-.1-1.93-.3-2.67-.2-.71-.54-1.12-1.01-1.38-.38-.22-1.21-.24-2.16-.13-.94.1-1.94.28-2.96.4-2.03.25-4.07.5-6.12.6-4.1.24-8.21.19-12.28-.32z" class="shp9"/><path d="M91.26 135.04c2.99-1.81 6.23-3.21 9.68-4.09 1.72-.46 3.49-.77 5.33-.84 1.84-.04 3.77.02 5.72.95.97.41 1.89 1.25 2.54 2.23.6 1.04.8 2.06.93 2.98.22 1.86.25 3.54.24 5.31.01 1.78-.16 3.54-.42 5.28-.16.87-.31 1.73-.56 2.6l-.05.17-.03.1-.02.06c-.02.06-.07.13-.14.19-.07.05-.15.08-.21.09.04 0-.13.05-.32-.15-.1-.16-.04-.08-.06-.13-.03-.19-.01-.17-.01-.26l.02-.17.1-.65c.08-.43.15-.86.25-1.29l.2 1.29.09.64.03.15c.01.03.03.15.02.07-.02-.04.04.05-.06-.11-.19-.19-.34-.13-.31-.15a.288.288 0 00-.19.05c-.07.04-.11.1-.12.15-.02.07-.01.01-.01.02v-.21c-.01-.83-.03-1.7-.09-2.55-.08-1.7-.24-3.39-.44-5.06-.25-1.67-.42-3.44-.71-4.98-.16-.77-.35-1.46-.65-1.9-.33-.41-.69-.83-1.33-1.08-.27-.17-.64-.24-.95-.38-.36-.07-.71-.17-1.08-.23-.75-.13-1.54-.18-2.34-.2-1.61-.04-3.26.11-4.93.3-3.34.41-6.68 1.15-10.12 1.8zm20.72-19.2c3.98-1.02 8.14-1.37 12.28-1.14 2.09.08 4.13.41 6.15.71 1.02.16 2.05.37 3.11.66 1.05.31 2.2.7 3.26 1.53 1.04.84 1.83 2.01 2.1 3.42.23 1.38.01 2.48-.18 3.53-.44 2.08-.96 4.04-1.56 5.99-1.17 3.9-2.4 7.77-3.94 11.58.33-4.09.92-8.13 1.66-12.12.33-2 .79-3.99 1.04-5.91.12-.94.23-1.89.07-2.52-.11-.59-.52-1.21-1.06-1.64-1.09-.91-3.11-1.33-5.03-1.75-1.96-.45-3.92-.83-5.87-1.17-3.93-.64-7.93-.95-12.03-1.17z" class="shp9"/><path d="M105.09 118.54c3.98-1.02 8.14-1.37 12.28-1.14 2.09.08 4.13.41 6.15.71 1.02.16 2.05.37 3.11.66 1.05.31 2.2.7 3.26 1.53 1.04.84 1.83 2.01 2.1 3.42.23 1.38.01 2.48-.18 3.53-.44 2.08-.96 4.04-1.56 5.99-1.17 3.9-2.4 7.77-3.94 11.58.33-4.09.92-8.13 1.66-12.12.33-2 .79-3.99 1.04-5.91.12-.94.23-1.89.07-2.52-.11-.59-.52-1.21-1.06-1.64-1.09-.91-3.11-1.33-5.03-1.75-1.96-.45-3.92-.83-5.87-1.17-3.93-.64-7.94-.95-12.03-1.17zm30.64-11.79c3.84.24 7.61.76 11.36 1.39 1.89.28 3.73.63 5.66 1.04.49.11.97.23 1.54.44.28.12.59.24.92.46.32.21.64.51.83.76.41.5.76 1.14.95 1.79.16.64.22 1.26.21 1.81-.08 2.21-.58 4.04-1.05 5.92-.53 1.85-1.03 3.69-1.65 5.49-1.19 3.62-2.51 7.2-4.11 10.7.4-3.83 1.09-7.58 1.85-11.3.35-1.87.8-3.7 1.15-5.55.18-.92.38-1.83.52-2.73.17-.9.28-1.79.29-2.57.02-.4-.02-.73-.07-1.01a1.99 1.99 0 00-.36-.71c-.1-.13-.13-.15-.2-.21-.06-.05-.2-.12-.35-.18-.32-.13-.76-.26-1.19-.39-1.75-.53-3.63-.95-5.45-1.5-3.66-1.05-7.29-2.21-10.85-3.65z" class="shp9"/><path d="M129.64 110.84c3.84.24 7.61.76 11.36 1.39 1.89.28 3.73.63 5.66 1.04.49.11.97.23 1.54.44.28.12.59.24.92.46.32.21.64.51.83.76.41.5.76 1.14.95 1.79.16.64.22 1.26.21 1.81-.08 2.21-.58 4.04-1.05 5.92-.53 1.85-1.03 3.69-1.65 5.49-1.19 3.62-2.51 7.2-4.11 10.7.4-3.83 1.09-7.58 1.85-11.3.35-1.87.8-3.7 1.15-5.55.18-.92.38-1.83.52-2.73.17-.9.28-1.79.29-2.57.02-.4-.02-.73-.07-1.01a1.99 1.99 0 00-.36-.71c-.1-.13-.13-.15-.2-.21-.06-.05-.2-.12-.35-.18-.32-.13-.76-.26-1.19-.39-1.75-.53-3.63-.95-5.45-1.5-3.66-1.05-7.29-2.21-10.85-3.65zm40.44 46.94c6.44-.7 12.79-1.64 19-3.1 3.1-.75 6.17-1.57 9.18-2.59 3.03-.95 5.92-2.21 9.19-3.18 1.64-.43 3.48-.79 5.47-.39.99.19 1.92.63 2.75 1.21.86.6 1.56 1.49 1.96 2.33.82 1.68 1.22 3.3 1.61 4.9.38 1.6.69 3.2.95 4.81 1.11 6.39 1.88 12.8 2.43 19.26-1.78-6.23-3.19-12.54-4.72-18.78-.39-1.56-.79-3.1-1.21-4.63-.43-1.51-.91-3.02-1.56-4.21-.34-.59-.67-1-1.15-1.32-.5-.32-1.05-.6-1.66-.69-1.21-.24-2.63.01-4.09.41-2.93.81-5.99 2.1-9.14 3-3.15.9-6.34 1.68-9.57 2.17-6.43 1.05-12.98 1.34-19.44.8z" class="shp9"/><path d="M186.25 142.62c5.52-1.09 11.09-1.78 16.68-2.26 2.79-.27 5.6-.4 8.4-.55 2.81-.12 5.6-.17 8.42-.21 2.81.05 5.78.03 8.78 1.15 1.47.59 2.87 1.5 3.91 2.69 1.14 1.12 1.85 2.55 2.42 3.96 1.03 2.88 1.16 5.86.88 8.71-.3 2.85-.98 5.62-1.99 8.25.37-2.79.64-5.56.52-8.3-.06-2.73-.53-5.43-1.57-7.76-.59-1.12-1.23-2.21-2.14-3.01-.84-.88-1.89-1.48-3.03-1.87-2.29-.8-5.04-.82-7.79-.81-2.77-.02-5.57.02-8.35.04l-8.36.05c-5.57.02-11.15.07-16.78-.08zm12.28-55.2c2.79 4.26 5 8.84 6.95 13.52.93 2.36 1.88 4.72 2.58 7.16.76 2.42 1.48 4.86 2.15 7.3l.29 1.08-.95.55c-1.47.84-2.96 1.64-4.44 2.46-1.48.82-3 1.57-4.5 2.35-1.53.74-3.04 1.51-4.59 2.2-1.54.72-3.1 1.4-4.68 2.03 1.33-1.08 2.69-2.1 4.06-3.09 1.37-1.01 2.77-1.95 4.16-2.92 1.42-.93 2.81-1.89 4.23-2.8 1.43-.91 2.84-1.84 4.28-2.72l-.66 1.62c-.76-2.38-1.47-4.77-2.15-7.17-.32-1.21-.71-2.39-1.08-3.59-.36-1.2-.73-2.39-1.12-3.58-1.48-4.78-3.1-9.52-4.53-14.4z" class="shp9"/><path d="M180.19 86.14c3.62 3.58 6.75 7.59 9.63 11.76 1.41 2.11 2.82 4.22 4.02 6.46 1.25 2.21 2.46 4.44 3.63 6.69l.51.99-.82.73c-1.26 1.13-2.55 2.22-3.83 3.33-1.28 1.11-2.6 2.17-3.91 3.24-1.34 1.04-2.65 2.11-4.02 3.12a86.852 86.852 0 01-4.15 2.97c1.07-1.33 2.19-2.62 3.32-3.88 1.12-1.28 2.3-2.49 3.46-3.73 1.19-1.2 2.35-2.43 3.55-3.63 1.21-1.18 2.39-2.39 3.61-3.56l-.3 1.72c-1.25-2.17-2.44-4.35-3.6-6.56-.57-1.11-1.2-2.19-1.8-3.28-.6-1.09-1.22-2.18-1.84-3.26-2.46-4.34-5.03-8.64-7.46-13.11z" class="shp9"/><path d="M163.19 87.57c4.24 2.81 8.09 6.14 11.73 9.67 1.79 1.8 3.59 3.59 5.2 5.56 1.65 1.92 3.28 3.88 4.86 5.86l.7.87-.66.88c-1.02 1.35-2.07 2.67-3.11 4.01-1.04 1.34-2.13 2.63-3.21 3.94-1.11 1.28-2.19 2.59-3.34 3.84a87.522 87.522 0 01-3.5 3.72c.8-1.51 1.64-2.99 2.51-4.45.85-1.47 1.77-2.89 2.67-4.33.93-1.41 1.83-2.84 2.78-4.24.95-1.4 1.88-2.81 2.85-4.19l.04 1.75a202.8 202.8 0 01-4.81-5.74c-.77-.98-1.6-1.92-2.41-2.87-.8-.96-1.62-1.9-2.44-2.84-3.25-3.81-6.61-7.52-9.86-11.44zm47.06 4.27c2.79 4.26 5 8.84 6.95 13.52.93 2.36 1.88 4.72 2.58 7.16.76 2.42 1.48 4.86 2.15 7.3l.29 1.08-.95.55c-1.47.84-2.96 1.64-4.44 2.46-1.48.82-3 1.57-4.5 2.35-1.53.74-3.04 1.51-4.59 2.2-1.54.72-3.1 1.4-4.68 2.03 1.33-1.08 2.69-2.1 4.06-3.09 1.37-1.01 2.77-1.95 4.16-2.92 1.42-.93 2.81-1.89 4.23-2.8 1.43-.91 2.84-1.84 4.28-2.72l-.66 1.62c-.76-2.38-1.47-4.77-2.15-7.17-.32-1.21-.71-2.39-1.08-3.59-.36-1.2-.73-2.39-1.12-3.58-1.48-4.78-3.1-9.52-4.53-14.4z" class="shp9"/><path d="M143.63 92.91c4.72 1.91 9.15 4.41 13.42 7.15 2.11 1.4 4.23 2.81 6.2 4.41 2 1.56 3.98 3.15 5.93 4.78l.86.72-.47.99c-.73 1.53-1.5 3.03-2.25 4.55s-1.57 3-2.36 4.5c-.83 1.48-1.64 2.97-2.51 4.43-.85 1.47-1.75 2.92-2.69 4.34.48-1.64 1.01-3.26 1.58-4.86.55-1.61 1.16-3.18 1.75-4.77.64-1.57 1.23-3.15 1.88-4.71.66-1.56 1.29-3.13 1.96-4.67l.38 1.71c-1.98-1.52-3.93-3.08-5.85-4.67-.95-.81-1.95-1.56-2.93-2.33-.98-.78-1.96-1.54-2.96-2.3-3.95-3.11-7.98-6.08-11.94-9.27zM387.66 57.3c-4.61 1.05-9.21 1.95-13.71 3.08-2.24.6-4.47 1.17-6.57 1.98-1.04.4-2.08.81-2.98 1.34-.89.5-1.7 1.16-1.96 1.72-.02.07-.06.13-.09.19-.01.06-.02.12-.04.17-.04.08.02.01-.01.03 0 .01.03.09.03.13.1.28.34.71.66 1.12.61.84 1.41 1.67 2.18 2.5 1.56 1.68 3.27 3.28 4.91 4.95 3.32 3.32 6.64 6.63 9.77 10.19-3.94-2.61-7.72-5.45-11.34-8.45-1.84-1.48-3.6-3.04-5.36-4.69-.87-.84-1.71-1.71-2.51-2.74-.4-.52-.8-1.09-1.11-1.91-.07-.24-.14-.44-.18-.72-.02-.28-.05-.65.01-.85.04-.23.09-.46.15-.69.08-.21.17-.41.27-.61.86-1.53 2.09-2.26 3.21-2.91 1.15-.62 2.3-1.08 3.47-1.45 2.34-.72 4.68-1.25 7.04-1.59 4.7-.71 9.43-.98 14.16-.79z" class="shp9"/><path d="M370.84 49.06c-3.39 2.18-6.85 4.14-10.26 6.14-1.7 1.02-3.39 2-5.02 3.07-1.62 1.06-3.25 2.13-4.6 3.36-.69.59-1.31 1.25-1.65 1.84-.2.3-.24.54-.28.7.01.16-.02.18.14.39.35.44 1.28 1.06 2.07 1.65.83.6 1.63 1.27 2.38 1.98 3.03 2.81 5.41 6.27 6.83 10.04-2.51-3.15-5.25-5.95-8.33-8.24-.78-.57-1.57-1.09-2.38-1.62l-1.27-.8c-.44-.29-.91-.59-1.43-1.12-.26-.25-.51-.62-.68-1.03-.17-.42-.22-.85-.25-1.28.03-.83.28-1.57.6-2.12.65-1.13 1.44-1.92 2.25-2.64 3.28-2.76 6.87-4.59 10.55-6.26 3.67-1.63 7.44-3.01 11.33-4.06z" class="shp9"/><path d="M357.94 47.36a41.818 41.818 0 01-9.39 10.22c-1.81 1.47-3.89 2.71-5.87 3.83-.96.56-1.89 1.08-2.49 1.7-.3.3-.52.61-.66.93-.07.15-.12.35-.15.49-.02.12-.01.17.01.3.13.63.7 1.7 1.24 2.61.55.95 1.15 1.91 1.75 2.86l3.67 5.75c1.25 1.9 2.43 3.83 3.84 5.54 1.41 1.76 2.98 3.4 4.61 5.03-2.03-1.1-3.91-2.48-5.67-4.01-1.77-1.59-3.25-3.39-4.68-5.2-1.45-1.8-2.77-3.66-4.13-5.54-.67-.94-1.3-1.91-1.93-2.92-.31-.5-.61-1.03-.9-1.58-.28-.57-.57-1.15-.75-1.99-.08-.43-.09-.96 0-1.4.09-.42.2-.78.37-1.14.32-.73.81-1.35 1.33-1.83 1.05-.97 2.15-1.56 3.2-2.09 2.07-.98 3.95-2.05 5.86-3.24 3.78-2.4 7.28-5.27 10.74-8.32z" class="shp9"/><path d="M337.02 49.76c-2.29 3.41-4.96 6.54-7.84 9.46-1.42 1.48-2.95 2.85-4.48 4.22-.76.68-1.56 1.32-2.25 1.96-.7.64-1.23 1.28-1.32 1.72-.12.53-.03 1.05.37 1.67.42.64 1.1 1.31 1.81 1.98 1.42 1.36 3.01 2.67 4.46 4.12 1.48 1.42 2.9 2.91 4.24 4.47 1.29 1.61 2.58 3.2 3.75 4.87-1.67-1.22-3.22-2.52-4.78-3.82-1.56-1.29-3.16-2.51-4.74-3.75-1.61-1.22-3.19-2.45-4.82-3.77-.8-.68-1.62-1.41-2.37-2.43-.75-1.04-1.23-2.65-.82-4.11.21-.75.62-1.39 1.02-1.87.41-.49.82-.88 1.23-1.24.82-.71 1.6-1.35 2.4-1.97 1.6-1.22 3.14-2.51 4.72-3.77 3.14-2.55 6.22-5.17 9.42-7.74z" class="shp9"/><path d="M344.14 52.59c-2.75 2.16-5.51 4.19-8 6.44-1.24 1.13-2.44 2.28-3.46 3.52-.51.62-.99 1.24-1.39 1.89-.2.32-.35.65-.54.97-.1.32-.29.65-.34.96-.23.64-.15 1.19-.06 1.71.13.52.53 1.12 1 1.74.97 1.24 2.19 2.53 3.28 3.82 1.12 1.25 2.29 2.48 3.52 3.66.6.6 1.23 1.19 1.86 1.75l.11.1.05.04c-.01 0 .04.02-.02-.01a.327.327 0 00-.2-.01c-.07.02-.13.07-.16.11.03-.02-.11.06-.09.33.06.17.03.07.04.11.06.06-.02-.04-.04-.06l-.1-.12-.42-.49-.84-1c.39.21.76.44 1.14.66l.56.36.14.1c.06.05.07.03.19.17.02.05-.01-.05.05.13.02.27-.12.36-.1.34-.04.04-.12.08-.2.1-.09.02-.17 0-.23-.02l-.06-.02-.09-.04-.16-.07c-.82-.38-1.56-.84-2.32-1.29-1.48-.94-2.92-1.98-4.25-3.15-1.33-1.16-2.58-2.28-3.84-3.67-.61-.71-1.25-1.53-1.64-2.66-.31-1.14-.33-2.38-.01-3.38.58-2.08 1.81-3.58 3.04-4.93 1.27-1.34 2.67-2.47 4.14-3.46 2.91-2.05 6.1-3.56 9.44-4.63zm-32.4-1.17c-2.53 3.23-4.93 6.45-7.03 9.83-1.03 1.69-2.03 3.42-2.98 5.19-.94 1.72-1.96 3.52-1.99 4.94-.04.68.16 1.41.54 1.87.37.53 1.16 1.08 1.94 1.6 1.6 1.08 3.41 2.04 5.13 3.1 3.49 2.07 6.93 4.28 10.22 6.72-3.88-1.34-7.61-2.96-11.31-4.65-1.87-.83-3.68-1.73-5.54-2.76-.92-.56-1.88-1.11-2.78-2.19-.89-1.13-1.25-2.49-1.2-3.83.07-1.35.53-2.46.99-3.46.48-.99 1-1.91 1.55-2.78 1.11-1.72 2.2-3.48 3.52-5.1 2.55-3.25 5.55-6.15 8.94-8.48z" class="shp9"/><path d="M322.58 50.36c-2.53 3.23-4.93 6.45-7.03 9.83-1.03 1.69-2.03 3.42-2.98 5.19-.94 1.72-1.96 3.52-1.99 4.94-.04.68.16 1.41.54 1.87.37.53 1.16 1.08 1.94 1.6 1.6 1.08 3.41 2.04 5.13 3.1 3.49 2.07 6.93 4.28 10.22 6.72-3.88-1.34-7.61-2.96-11.31-4.65-1.87-.83-3.68-1.73-5.54-2.76-.92-.56-1.88-1.11-2.78-2.19-.89-1.13-1.25-2.49-1.2-3.83.07-1.35.53-2.46.99-3.46.48-.99 1-1.91 1.55-2.78 1.11-1.72 2.2-3.48 3.52-5.1 2.56-3.26 5.56-6.16 8.94-8.48zm-35.62 13.17c-1.25 3.63-2.77 7.13-4.38 10.59-.78 1.73-1.7 3.43-2.45 5.09-.18.41-.37.82-.48 1.15-.05.16-.09.3-.09.38 0 .09-.01.13.02.29.06.29.16.51.3.74.18.23.4.48.71.72.6.51 1.34 1 2.13 1.47.77.48 1.59.93 2.4 1.4 1.62.95 3.3 1.82 4.93 2.78 3.3 1.88 6.58 3.82 9.72 6.04-3.69-1.1-7.25-2.45-10.76-3.94-1.77-.72-3.49-1.55-5.23-2.37-1.73-.88-3.43-1.71-5.15-3.1-.42-.35-.85-.81-1.22-1.35-.37-.58-.62-1.25-.73-1.9-.06-.31-.08-.75-.02-1.13.05-.39.15-.71.25-1 .21-.56.43-1.01.68-1.45.97-1.72 1.91-3.33 2.94-4.94 1.99-3.23 4.08-6.42 6.43-9.47z" class="shp9"/><path d="M296.26 57.3c-1.25 3.63-2.77 7.13-4.38 10.59-.78 1.73-1.7 3.43-2.45 5.09-.18.41-.37.82-.48 1.15-.05.16-.09.3-.09.38 0 .09-.01.13.02.29.06.29.16.51.3.74.18.23.4.48.71.72.6.51 1.34 1 2.13 1.47.77.48 1.59.93 2.4 1.4 1.62.95 3.3 1.82 4.93 2.78 3.3 1.88 6.58 3.82 9.72 6.04-3.69-1.1-7.25-2.45-10.76-3.94-1.77-.72-3.49-1.55-5.23-2.37-1.73-.88-3.43-1.71-5.15-3.1-.42-.35-.85-.81-1.22-1.35-.37-.58-.62-1.25-.73-1.9-.06-.31-.08-.75-.02-1.13.05-.39.15-.71.25-1 .21-.56.43-1.01.68-1.45.97-1.72 1.91-3.33 2.94-4.94 1.99-3.23 4.08-6.42 6.43-9.47zm-61.69 36.21c2.73 4.29 5.24 8.62 7.87 12.88.64 1.07 1.29 2.14 1.96 3.2.66 1.06 1.3 2.13 1.99 3.17 1.37 2.09 2.7 4.2 3.99 6.34l-1.65-.57c1.61-.5 3.24-.95 4.86-1.43 1.62-.47 3.26-.89 4.89-1.34 1.64-.41 3.28-.85 4.94-1.21 1.65-.39 3.32-.73 5-1.03-1.52.78-3.06 1.5-4.61 2.19-1.55.71-3.12 1.34-4.68 2.01-1.58.62-3.14 1.27-4.73 1.84-1.59.57-3.17 1.18-4.77 1.73l-1.04.36-.62-.93c-1.4-2.11-2.76-4.26-4.09-6.42-1.37-2.13-2.53-4.4-3.69-6.65-2.25-4.56-4.24-9.24-5.62-14.14z" class="shp9"/><path d="M245.67 78.85c1.77 4.77 3.31 9.53 4.99 14.25.4 1.18.82 2.36 1.24 3.54.42 1.18.82 2.36 1.28 3.52.9 2.33 1.76 4.67 2.57 7.03l-1.5-.91c1.68-.15 3.37-.25 5.05-.38 1.69-.12 3.38-.18 5.07-.29 1.69-.05 3.38-.14 5.08-.15 1.7-.03 3.4-.02 5.11.05-1.65.44-3.31.83-4.97 1.17-1.66.37-3.33.66-5 .98-1.67.28-3.34.58-5.02.81-1.68.23-3.35.48-5.03.69l-1.09.13-.41-1.04c-.93-2.36-1.81-4.74-2.65-7.13-.9-2.37-1.56-4.83-2.22-7.28-1.22-4.91-2.18-9.91-2.5-14.99z" class="shp9"/><path d="M257.93 66.99c.82 5.02 1.4 9.99 2.13 14.94.17 1.24.34 2.48.54 3.71.18 1.24.35 2.47.58 3.7.43 2.46.82 4.92 1.16 7.4l-1.29-1.18c1.68.18 3.35.41 5.03.61 1.68.21 3.35.48 5.03.7 1.67.28 3.35.52 5.02.84 1.67.3 3.34.64 5 1.04-1.7.11-3.41.17-5.1.19-1.7.04-3.39 0-5.09-.01-1.69-.05-3.39-.08-5.08-.18-1.69-.1-3.38-.17-5.07-.3l-1.09-.08-.2-1.1c-.45-2.5-.85-5-1.22-7.51-.42-2.5-.59-5.04-.77-7.57-.27-5.07-.25-10.15.42-15.2zm-27.74 38.26c2.73 4.29 5.24 8.62 7.87 12.88.64 1.07 1.29 2.14 1.96 3.2.66 1.06 1.3 2.13 1.99 3.17 1.37 2.09 2.7 4.2 3.99 6.34l-1.65-.57c1.61-.5 3.24-.95 4.86-1.43 1.62-.47 3.26-.89 4.89-1.34 1.64-.41 3.28-.85 4.94-1.21 1.65-.39 3.32-.73 5-1.03-1.52.78-3.06 1.5-4.61 2.19-1.55.71-3.12 1.34-4.68 2.01-1.58.62-3.14 1.27-4.73 1.84-1.59.57-3.17 1.18-4.77 1.73l-1.04.36-.62-.93c-1.4-2.11-2.76-4.26-4.09-6.42-1.37-2.13-2.53-4.4-3.69-6.65-2.25-4.56-4.24-9.24-5.62-14.14z" class="shp9"/><path d="M272.51 60.99c-.2 5.08-.61 10.07-.88 15.07-.08 1.25-.16 2.49-.21 3.74-.07 1.25-.15 2.49-.17 3.74-.07 2.5-.17 4.99-.33 7.48l-1.03-1.41c1.61.51 3.21 1.06 4.81 1.59 1.6.54 3.19 1.13 4.79 1.68 1.58.6 3.18 1.17 4.75 1.82 1.58.62 3.14 1.29 4.7 2.01-1.69-.23-3.37-.51-5.04-.83-1.67-.3-3.33-.67-4.99-1.02-1.65-.39-3.31-.75-4.94-1.18-1.64-.43-3.28-.84-4.91-1.3l-1.06-.3.02-1.12c.05-2.54.16-5.07.3-7.61.09-2.54.42-5.06.75-7.57.75-5 1.78-9.98 3.44-14.79zm-28.07 71.11c.85 10.79 1.2 21.59 1.38 32.4.12 5.4.14 10.81.14 16.21-.07 5.4-.24 10.8-.39 16.17-.16 5.38-.33 10.73-.3 16.05.01 5.32.29 10.61.77 15.93 1.01 10.63 2.82 21.2 5.15 31.78-4.31-9.95-7.25-20.51-9.02-31.28-.93-5.38-1.44-10.86-1.64-16.32-.21-5.47-.11-10.9.04-16.3.17-5.4.41-10.79.66-16.17.2-5.38.4-10.76.71-16.15.55-10.77 1.28-21.54 2.5-32.32zm11.55 6.33c8.89 6.22 17.45 12.79 25.88 19.5 4.24 3.33 8.41 6.74 12.57 10.15 4.2 3.37 8.39 6.76 12.56 10.2 4.15 3.46 8.29 6.98 12.25 10.76 3.96 3.77 7.73 7.77 11.15 12.03 6.91 8.45 12.88 17.64 17.49 27.46-6.39-8.74-13.12-17.1-20.42-24.89-3.67-3.87-7.45-7.59-11.43-11.12-3.97-3.54-8.09-6.96-12.23-10.4-4.13-3.44-8.29-6.89-12.39-10.41-4.06-3.57-8.09-7.16-12.06-10.83-7.97-7.26-15.84-14.67-23.37-22.45zm155.28 51.72c-4.03-2.48-7.95-5.04-11.95-7.39-2.02-1.14-4.01-2.29-6.08-3.18-1.03-.44-2.05-.87-3.07-1.13-.99-.26-2.03-.36-2.61-.14-.06.03-.13.05-.2.07-.05.04-.09.07-.15.1-.08.03 0 .02-.03.01-.01.01-.04.08-.07.12-.12.27-.25.75-.31 1.26-.15 1.03-.16 2.17-.19 3.31-.06 2.29.05 4.63.05 6.97.06 4.69.12 9.38-.14 14.11-.99-4.63-1.71-9.29-2.2-13.97-.28-2.34-.44-4.69-.55-7.09-.03-1.21-.03-2.41.12-3.72.08-.65.19-1.34.54-2.14.12-.22.21-.42.38-.64.18-.21.42-.5.6-.6.19-.13.39-.26.59-.38.2-.09.41-.18.62-.25 1.69-.49 3.07-.16 4.33.16 1.25.36 2.4.84 3.5 1.39 2.18 1.12 4.22 2.38 6.14 3.79 3.86 2.78 7.43 5.89 10.68 9.34z" class="shp9"/><path d="M405.75 174.41c-3.95-.81-7.79-1.83-11.63-2.78-1.92-.46-3.82-.94-5.74-1.32-1.9-.38-3.81-.75-5.64-.82-.9-.06-1.8-.02-2.47.16-.36.07-.55.22-.69.3-.1.12-.14.12-.17.38-.06.56.18 1.65.33 2.63.17 1.01.28 2.05.32 3.08.2 4.13-.51 8.26-2.13 11.95.4-4 .41-7.92-.2-11.72-.16-.95-.36-1.87-.57-2.82l-.35-1.46c-.11-.52-.24-1.06-.24-1.8 0-.36.07-.8.23-1.22.17-.42.43-.76.72-1.09.6-.57 1.3-.93 1.91-1.09 1.25-.36 2.38-.37 3.45-.32 4.28.32 8.13 1.52 11.91 2.9 3.79 1.42 7.45 3.06 10.96 5.04z" class="shp9"/><path d="M398.23 157.81c-4.5 1.01-9.2 1.27-13.86.74-2.32-.22-4.68-.78-6.88-1.37-1.08-.27-2.1-.54-2.97-.53-.43 0-.8.07-1.12.21-.16.06-.33.17-.45.24-.1.08-.12.11-.2.22-.35.54-.68 1.71-.93 2.74-.28 1.07-.51 2.17-.75 3.27l-1.4 6.67c-.43 2.23-.94 4.44-1.13 6.64-.22 2.24-.25 4.52-.22 6.82-.69-2.21-1.06-4.51-1.25-6.84-.15-2.37.05-4.7.29-6.99.22-2.3.58-4.56.92-6.84.18-1.14.4-2.28.66-3.44.13-.58.29-1.16.47-1.76.2-.6.4-1.23.86-1.95.24-.36.61-.75.98-1a5.7 5.7 0 011.06-.56c.74-.29 1.52-.4 2.23-.38 1.43.04 2.63.39 3.75.74 2.17.75 4.26 1.3 6.46 1.78 4.37.96 8.88 1.36 13.48 1.59zm-17.44-16.28c-4.02.83-8.11 1.21-12.21 1.28-2.05.07-4.11-.03-6.15-.11-1.02-.04-2.03-.15-2.98-.17-.95-.03-1.78.05-2.14.3-.45.29-.76.72-.9 1.45-.15.75-.13 1.71-.09 2.68.06 1.96.28 4.01.31 6.06a63.3 63.3 0 01-.09 6.16c-.2 2.05-.4 4.09-.72 6.11-.34-2.04-.54-4.06-.75-6.07-.21-2.01-.5-4.01-.77-6-.3-2-.57-3.98-.81-6.06-.1-1.05-.17-2.14.01-3.39.19-1.27.98-2.75 2.29-3.51.67-.39 1.41-.56 2.04-.63.63-.06 1.2-.05 1.75-.03 1.08.06 2.09.16 3.09.27 2 .25 4 .4 6 .6 4 .38 8.03.65 12.12 1.06z" class="shp9"/><path d="M385.55 149.71c-3.48-.38-6.87-.86-10.22-.99-1.67-.06-3.34-.08-4.94.09-.8.09-1.58.2-2.32.38-.37.09-.71.22-1.06.32-.3.16-.67.26-.92.45-.61.3-.94.74-1.24 1.18-.26.46-.41 1.17-.5 1.95-.18 1.57-.2 3.34-.32 5.02-.07 1.67-.09 3.37-.04 5.08.01.85.05 1.71.11 2.55l.01.15.01.06c-.01-.01.01.05-.01-.02a.313.313 0 00-.14-.14.292.292 0 00-.2-.03c.04.01-.13-.03-.3.17-.08.17-.03.07-.05.11 0 .08.01-.04.02-.07l.02-.15.04-.64.1-1.31c.13.42.24.84.35 1.27l.15.64.03.17c.01.08.03.07.01.26-.02.05.03-.04-.05.13-.17.21-.34.17-.31.17a.414.414 0 01-.37-.25l-.03-.06-.04-.09-.07-.17c-.32-.85-.53-1.69-.76-2.55-.4-1.71-.7-3.45-.84-5.23-.14-1.76-.25-3.44-.17-5.31.06-.93.18-1.96.69-3.05.57-1.03 1.42-1.94 2.36-2.42 1.87-1.08 3.79-1.29 5.62-1.4 1.84-.07 3.63.1 5.38.42 3.53.59 6.88 1.74 10 3.31zm-22.71-22.58c-4.07.54-8.03 1.16-11.9 2.12-1.92.49-3.84 1.03-5.76 1.63-1.87.57-3.86 1.15-4.87 2.14-.51.46-.87 1.12-.93 1.71-.11.64.08 1.58.27 2.5.39 1.89 1.02 3.84 1.5 5.81 1.05 3.92 1.96 7.9 2.61 11.95-1.84-3.68-3.37-7.44-4.84-11.23-.75-1.9-1.42-3.8-2.03-5.85-.26-1.04-.57-2.11-.45-3.51.15-1.43.85-2.65 1.82-3.57.99-.91 2.1-1.39 3.13-1.78 1.04-.37 2.05-.67 3.05-.91 2-.45 4-.95 6.08-1.19 4.1-.55 8.27-.52 12.32.18z" class="shp9"/><path d="M371.69 131.97c-4.07.54-8.03 1.16-11.9 2.12-1.92.49-3.84 1.03-5.76 1.63-1.87.57-3.86 1.15-4.87 2.14-.51.46-.87 1.12-.93 1.71-.11.63.08 1.58.27 2.5.39 1.89 1.02 3.84 1.5 5.81 1.05 3.92 1.96 7.9 2.61 11.95-1.84-3.68-3.37-7.44-4.84-11.23-.75-1.9-1.42-3.8-2.03-5.85-.26-1.04-.57-2.11-.45-3.51.15-1.43.85-2.65 1.82-3.57.99-.91 2.1-1.39 3.13-1.78 1.04-.37 2.05-.67 3.05-.91 2-.45 4-.95 6.08-1.19 4.1-.55 8.27-.53 12.32.18zm-32.24-12.07c-3.44 1.72-6.97 3.16-10.53 4.5-1.77.69-3.61 1.26-5.31 1.92-.42.17-.84.32-1.15.48-.15.08-.28.15-.33.21a.9.9 0 00-.19.22c-.16.25-.24.48-.3.74-.03.29-.05.62.01 1.02.07.78.26 1.66.49 2.54.21.88.48 1.78.74 2.68.5 1.81 1.09 3.61 1.58 5.44 1.05 3.65 2.03 7.33 2.73 11.12-1.87-3.36-3.47-6.82-4.94-10.34-.76-1.75-1.41-3.54-2.08-5.35-.62-1.84-1.26-3.62-1.51-5.82-.06-.55-.04-1.17.07-1.82.14-.67.43-1.33.8-1.86.18-.26.47-.59.77-.82.31-.25.6-.4.88-.54.54-.26 1.02-.42 1.5-.56 1.89-.55 3.7-1.05 5.56-1.48 3.68-.92 7.4-1.74 11.21-2.28z" class="shp9"/><path d="M349.95 124.35c-3.44 1.72-6.97 3.16-10.53 4.5-1.77.69-3.61 1.26-5.31 1.92-.42.17-.84.32-1.15.48-.15.08-.28.15-.33.21a.9.9 0 00-.19.22c-.16.25-.24.48-.3.74-.03.29-.05.62.01 1.02.07.78.26 1.66.49 2.54.21.88.48 1.78.74 2.68.5 1.81 1.09 3.61 1.58 5.44 1.05 3.65 2.03 7.33 2.73 11.12-1.87-3.36-3.47-6.82-4.94-10.34-.76-1.75-1.41-3.54-2.08-5.35-.62-1.84-1.26-3.62-1.51-5.82-.06-.55-.04-1.17.07-1.82.14-.67.43-1.33.8-1.86.18-.26.47-.59.77-.82.31-.25.6-.4.88-.54.54-.26 1.02-.42 1.5-.56 1.89-.55 3.7-1.05 5.56-1.48 3.68-.92 7.4-1.74 11.21-2.28zm-69.93-19.63c-1.04 4.98-2.28 9.83-3.38 14.71-.29 1.22-.57 2.43-.83 3.65-.27 1.22-.56 2.43-.79 3.66-.48 2.45-1 4.89-1.58 7.32l-.78-1.57c1.5.77 2.98 1.59 4.48 2.38 1.49.8 2.95 1.65 4.44 2.46 1.46.86 2.94 1.69 4.38 2.59 1.45.88 2.88 1.8 4.29 2.77-1.63-.51-3.24-1.06-4.83-1.66-1.6-.57-3.17-1.22-4.75-1.84-1.56-.66-3.13-1.29-4.67-1.99s-3.09-1.38-4.62-2.1l-.99-.47.21-1.1c.47-2.49 1-4.98 1.57-7.45.51-2.49 1.26-4.92 2.01-7.34 1.55-4.82 3.4-9.55 5.84-14.02z" class="shp9"/><path d="M297.74 104.72c-2.06 4.65-4.29 9.13-6.39 13.67-.54 1.13-1.07 2.26-1.58 3.4-.52 1.13-1.06 2.26-1.54 3.41-.99 2.29-2.01 4.57-3.08 6.83l-.44-1.69c1.31 1.07 2.59 2.18 3.88 3.26 1.29 1.09 2.54 2.23 3.82 3.34 1.25 1.15 2.52 2.26 3.74 3.45a94.47 94.47 0 013.62 3.6 83.03 83.03 0 01-4.37-2.64c-1.45-.9-2.84-1.86-4.26-2.79-1.39-.97-2.79-1.92-4.15-2.93-1.36-1.01-2.73-2-4.08-3.02l-.87-.67.43-1.03c.99-2.34 2.02-4.65 3.09-6.95 1.02-2.32 2.26-4.54 3.5-6.75 2.55-4.39 5.36-8.63 8.68-12.49z" class="shp9"/><path d="M314.25 105.55c-2.93 4.16-5.98 8.13-8.92 12.18-.75 1-1.49 2.01-2.21 3.03-.73 1.01-1.48 2.01-2.17 3.05a198.4 198.4 0 01-4.34 6.1l-.1-1.75c1.08 1.3 2.11 2.64 3.17 3.95 1.05 1.32 2.06 2.68 3.1 4.01 1 1.37 2.03 2.71 3 4.11.99 1.38 1.94 2.79 2.85 4.24a88.46 88.46 0 01-3.78-3.43c-1.24-1.16-2.43-2.37-3.63-3.56-1.17-1.22-2.37-2.42-3.51-3.68-1.14-1.25-2.3-2.49-3.42-3.76l-.73-.82.63-.93c1.42-2.1 2.89-4.17 4.38-6.22 1.45-2.08 3.1-4.02 4.75-5.95 3.34-3.82 6.92-7.44 10.93-10.57zm-46.99.47c-1.04 4.98-2.28 9.83-3.38 14.71-.29 1.22-.57 2.43-.83 3.65-.27 1.22-.56 2.43-.79 3.66-.48 2.45-1 4.89-1.58 7.32l-.78-1.57c1.5.77 2.98 1.59 4.48 2.38 1.49.8 2.95 1.65 4.44 2.46 1.46.86 2.94 1.69 4.38 2.59 1.45.88 2.88 1.8 4.29 2.77-1.63-.51-3.24-1.06-4.83-1.66-1.6-.57-3.17-1.22-4.75-1.84-1.56-.66-3.13-1.29-4.67-1.99s-3.09-1.38-4.62-2.1l-.99-.47.21-1.1c.47-2.49 1-4.98 1.57-7.45.51-2.49 1.26-4.92 2.01-7.34 1.55-4.82 3.4-9.56 5.84-14.02z" class="shp9"/><path d="M331.17 110.31c-3.69 3.5-7.48 6.77-11.16 10.16-.93.83-1.86 1.67-2.77 2.53-.92.85-1.85 1.68-2.74 2.56a188.8 188.8 0 01-5.47 5.11l.25-1.73c.8 1.49 1.55 3 2.32 4.5.77 1.5 1.49 3.04 2.24 4.55.71 1.54 1.45 3.06 2.12 4.62.69 1.55 1.35 3.12 1.95 4.72a85.173 85.173 0 01-3.02-4.12c-.99-1.38-1.91-2.81-2.85-4.22-.91-1.43-1.84-2.85-2.71-4.3-.87-1.45-1.76-2.89-2.6-4.36l-.55-.95.8-.78c1.81-1.78 3.66-3.52 5.53-5.23 1.84-1.75 3.84-3.32 5.83-4.89 4.06-3.05 8.28-5.89 12.83-8.17zm-71.35 110.27c-2.73-3.86-5.33-7.76-8.08-11.49-1.41-1.84-2.79-3.69-4.34-5.32-.77-.81-1.55-1.61-2.37-2.25-.81-.63-1.72-1.12-2.34-1.16-.07 0-.14 0-.21-.01-.06.02-.12.03-.18.03-.09 0-.01.02-.03 0-.01 0-.07.06-.11.08-.22.2-.52.59-.78 1.03-.54.88-1 1.94-1.47 2.97-.96 2.08-1.78 4.27-2.7 6.43-1.79 4.34-3.58 8.67-5.68 12.92.91-4.64 2.09-9.21 3.47-13.71.66-2.26 1.44-4.49 2.28-6.74.44-1.12.92-2.23 1.57-3.37.33-.57.7-1.15 1.34-1.76.2-.15.36-.3.6-.44.25-.12.58-.29.78-.32.23-.05.46-.09.69-.12.22 0 .45 0 .67.01 1.74.21 2.89 1.07 3.91 1.85 1.01.83 1.88 1.71 2.67 2.65 1.56 1.89 2.94 3.85 4.16 5.9a75.07 75.07 0 016.15 12.82z" class="shp9"/><path d="M262.08 200.21c-2.83-2.87-5.45-5.86-8.11-8.78-1.34-1.45-2.66-2.91-4.03-4.29-1.37-1.37-2.75-2.74-4.23-3.81-.72-.56-1.49-1.02-2.14-1.24-.34-.14-.58-.13-.74-.13-.15.04-.18.02-.36.22-.36.43-.77 1.47-1.19 2.37-.42.93-.91 1.86-1.45 2.74-2.13 3.54-5.03 6.58-8.43 8.74 2.56-3.1 4.75-6.36 6.36-9.85.39-.87.75-1.76 1.1-2.66l.52-1.4c.2-.49.39-1.01.8-1.63.2-.3.51-.62.87-.88.37-.26.79-.39 1.2-.51.82-.14 1.59-.05 2.19.16 1.24.4 2.18 1.02 3.04 1.66 3.37 2.65 5.9 5.79 8.28 9.04 2.38 3.25 4.5 6.66 6.32 10.25z" class="shp9"/><path d="M263.7 180.13a41.807 41.807 0 01-11.97-7.02c-1.82-1.46-3.47-3.23-4.99-4.93-.75-.82-1.46-1.61-2.18-2.08-.36-.23-.71-.38-1.05-.44-.16-.04-.37-.04-.51-.04-.12.01-.17.03-.29.07-.59.26-1.51 1.05-2.29 1.77-.82.74-1.62 1.53-2.43 2.32l-4.84 4.8c-1.59 1.62-3.23 3.18-4.6 4.92-1.42 1.75-2.7 3.63-3.95 5.57.64-2.22 1.6-4.35 2.72-6.39 1.18-2.06 2.63-3.9 4.09-5.67 1.45-1.8 2.99-3.49 4.54-5.2.78-.85 1.59-1.68 2.44-2.51.43-.41.88-.81 1.36-1.21.5-.39 1.01-.8 1.79-1.15.4-.17.92-.29 1.37-.29.43 0 .8.03 1.2.12.78.16 1.49.51 2.07.91 1.17.82 1.98 1.77 2.72 2.68 1.4 1.82 2.84 3.43 4.4 5.05 3.15 3.17 6.69 5.99 10.4 8.72zm86.65 30.54c-4.03-.81-7.94-2.08-11.73-3.62-1.91-.74-3.76-1.64-5.61-2.52-.92-.44-1.81-.93-2.67-1.33-.86-.41-1.65-.65-2.09-.56-.53.09-.98.37-1.4.98-.43.64-.79 1.52-1.14 2.43-.71 1.83-1.32 3.8-2.1 5.69-.74 1.91-1.58 3.79-2.51 5.62-.99 1.8-1.97 3.6-3.07 5.33.49-2.01 1.1-3.94 1.7-5.87.6-1.93 1.12-3.88 1.66-5.82.51-1.96 1.04-3.88 1.64-5.89.32-1 .69-2.03 1.34-3.12.67-1.09 1.98-2.15 3.48-2.33.77-.1 1.52.04 2.12.23.61.19 1.13.43 1.62.66.97.48 1.86.96 2.74 1.47 1.74 1.01 3.52 1.94 5.28 2.92 3.55 1.9 7.15 3.75 10.74 5.73z" class="shp9"/><path d="M353.52 220.88c-3.05-1.72-5.98-3.49-9.01-4.94-1.52-.71-3.04-1.39-4.57-1.86-.77-.23-1.53-.44-2.28-.56-.38-.07-.74-.08-1.1-.13-.34.03-.71-.02-1.02.05-.68.03-1.16.31-1.6.6-.43.32-.83.92-1.23 1.59-.78 1.37-1.5 2.99-2.27 4.49-.72 1.51-1.41 3.06-2.04 4.65-.33.78-.63 1.6-.9 2.38l-.05.14-.02.06v-.02c0-.05-.02-.12-.07-.18a.33.33 0 00-.17-.11c.03.02-.1-.08-.34.04-.14.12-.05.05-.09.08-.03.07.03-.03.04-.06l.07-.14.29-.58.61-1.16c-.05.44-.11.87-.18 1.3l-.12.65-.04.17c-.03.08 0 .07-.09.24-.04.04.04-.02-.1.1-.24.13-.38.02-.35.04a.573.573 0 01-.17-.15.404.404 0 01-.07-.22v-.34c.04-.9.17-1.76.3-2.64.31-1.73.71-3.45 1.29-5.13.56-1.67 1.12-3.26 1.93-4.95.42-.83.94-1.74 1.84-2.53.93-.73 2.07-1.22 3.12-1.3 2.15-.26 4 .3 5.72.93 1.72.66 3.3 1.52 4.78 2.51 3.01 1.94 5.63 4.31 7.89 6.98zm-18.07-30.95c-3.95-1.11-7.84-2.09-11.77-2.74-1.96-.3-3.94-.56-5.94-.77-1.95-.21-4-.46-5.32.05-.65.23-1.24.69-1.53 1.21-.35.54-.55 1.48-.74 2.41-.38 1.89-.58 3.93-.91 5.93-.58 4.02-1.3 8.04-2.3 12.02-.24-4.1-.17-8.16-.03-12.23.06-2.04.19-4.06.44-6.17.17-1.06.31-2.17.96-3.4.7-1.25 1.83-2.11 3.08-2.57 1.27-.45 2.48-.45 3.58-.41 1.1.07 2.14.19 3.16.37 2.01.37 4.05.7 6.06 1.3 3.99 1.1 7.82 2.76 11.26 5z" class="shp9"/><path d="M342.5 195.46c-3.95-1.11-7.84-2.09-11.77-2.74-1.96-.3-3.94-.56-5.94-.77-1.95-.21-4-.46-5.32.05-.65.23-1.24.69-1.53 1.21-.35.54-.55 1.48-.74 2.41-.38 1.89-.58 3.93-.91 5.93-.58 4.02-1.3 8.04-2.3 12.02-.24-4.1-.17-8.16-.03-12.23.06-2.04.19-4.06.44-6.17.17-1.06.31-2.17.96-3.4.7-1.25 1.83-2.11 3.08-2.57 1.27-.45 2.48-.45 3.58-.41 1.1.07 2.14.19 3.16.37 2.01.37 4.05.7 6.06 1.3 3.99 1.1 7.82 2.76 11.26 5zm-26.57-25.33c-3.84.23-7.65.17-11.46 0-1.9-.06-3.81-.26-5.64-.32-.45-.01-.9-.03-1.25-.01-.17.01-.31.03-.39.06-.09.03-.13.04-.26.13-.24.17-.41.34-.57.56-.14.26-.29.55-.39.94-.24.74-.41 1.63-.54 2.53-.15.9-.26 1.82-.38 2.75-.26 1.86-.42 3.74-.68 5.62-.47 3.77-1.01 7.54-1.86 11.29-.4-3.83-.51-7.64-.47-11.45-.01-1.91.1-3.81.19-5.74.15-1.94.27-3.83.9-5.95.16-.52.43-1.09.78-1.65.39-.56.92-1.05 1.47-1.4.26-.17.66-.36 1.03-.45.38-.11.71-.13 1.02-.15.6-.02 1.1.01 1.6.07 1.96.24 3.81.49 5.69.83 3.75.63 7.5 1.34 11.21 2.34z" class="shp9"/><path d="M322.25 178.45c-3.84.23-7.65.17-11.46 0-1.9-.06-3.81-.26-5.64-.32-.45-.01-.9-.03-1.25-.01-.17.02-.31.03-.39.06-.09.03-.13.04-.26.13-.24.17-.41.34-.57.56-.14.26-.29.55-.39.94-.24.74-.41 1.63-.54 2.53-.15.9-.26 1.82-.38 2.75-.26 1.86-.42 3.74-.68 5.62-.47 3.77-1.01 7.54-1.86 11.29-.4-3.83-.51-7.64-.47-11.45-.01-1.91.1-3.81.19-5.74.15-1.94.27-3.83.9-5.95.16-.52.43-1.09.78-1.65.39-.56.92-1.05 1.47-1.4.26-.17.66-.36 1.03-.45.38-.11.71-.13 1.02-.15.6-.02 1.1.01 1.6.07 1.96.24 3.81.49 5.69.83 3.75.62 7.49 1.33 11.21 2.34zm-52.39-56.9c-2.92 4.17-5.97 8.14-8.9 12.19-.75 1-1.48 2.01-2.2 3.03-.73 1.01-1.47 2.01-2.17 3.05-1.41 2.06-2.85 4.1-4.33 6.11l-.1-1.75c1.08 1.3 2.12 2.63 3.18 3.95 1.06 1.32 2.07 2.68 3.11 4.01 1.01 1.36 2.04 2.71 3.01 4.1.99 1.38 1.95 2.79 2.86 4.23-1.3-1.11-2.56-2.25-3.79-3.43-1.25-1.16-2.43-2.37-3.64-3.56-1.18-1.22-2.37-2.42-3.51-3.67-1.14-1.25-2.3-2.48-3.42-3.75l-.73-.82.62-.93c1.42-2.1 2.88-4.18 4.37-6.23 1.45-2.09 3.09-4.02 4.73-5.96 3.34-3.8 6.91-7.42 10.91-10.57z" class="shp9"/><path d="M289.75 132.32c-3.73 3.46-7.54 6.71-11.26 10.06-.94.82-1.87 1.66-2.79 2.5-.93.84-1.86 1.66-2.76 2.53-1.81 1.72-3.64 3.41-5.51 5.06l.26-1.73c.78 1.5 1.52 3.02 2.28 4.53.76 1.51 1.46 3.05 2.2 4.57.7 1.54 1.42 3.07 2.08 4.64.68 1.56 1.32 3.13 1.91 4.74a98.496 98.496 0 01-2.99-4.14c-.98-1.39-1.88-2.82-2.82-4.24-.89-1.44-1.81-2.86-2.67-4.32-.85-1.46-1.73-2.91-2.56-4.38l-.54-.96.8-.78c1.83-1.76 3.69-3.48 5.58-5.18 1.85-1.74 3.87-3.28 5.88-4.83 4.09-3.03 8.34-5.83 12.91-8.07z" class="shp9"/><path d="M300.68 143.69c-4.33 2.67-8.7 5.12-12.99 7.68-1.08.63-2.16 1.26-3.22 1.91-1.07.64-2.15 1.27-3.2 1.95-2.11 1.34-4.23 2.64-6.39 3.9l.6-1.65c.48 1.62.91 3.26 1.36 4.88.45 1.63.84 3.28 1.28 4.91.38 1.65.8 3.29 1.14 4.96.36 1.66.69 3.33.95 5.02-.76-1.53-1.46-3.08-2.13-4.64-.69-1.56-1.3-3.14-1.94-4.71-.6-1.58-1.22-3.16-1.78-4.76-.55-1.6-1.13-3.19-1.66-4.8l-.34-1.04.94-.6c2.13-1.37 4.3-2.7 6.48-4 2.15-1.34 4.43-2.47 6.7-3.6 4.58-2.18 9.29-4.1 14.2-5.41zm-43.34-21.7c-2.92 4.17-5.97 8.14-8.9 12.19-.75 1-1.48 2.01-2.2 3.03-.73 1.01-1.47 2.01-2.17 3.05-1.41 2.06-2.85 4.1-4.33 6.11l-.1-1.75c1.08 1.3 2.12 2.63 3.18 3.95 1.06 1.32 2.07 2.68 3.11 4.01 1.01 1.36 2.04 2.71 3.01 4.1.99 1.38 1.95 2.79 2.86 4.23-1.3-1.11-2.56-2.25-3.79-3.43-1.25-1.16-2.43-2.37-3.64-3.56-1.18-1.22-2.37-2.42-3.51-3.67-1.14-1.25-2.3-2.48-3.42-3.75l-.73-.82.62-.93c1.42-2.1 2.88-4.18 4.37-6.23 1.45-2.09 3.09-4.02 4.73-5.96 3.34-3.8 6.91-7.42 10.91-10.57z" class="shp9"/><path d="M313.27 153.94c-4.77 1.76-9.54 3.29-14.26 4.95-1.18.4-2.36.81-3.54 1.23-1.18.42-2.36.82-3.52 1.27-2.33.89-4.67 1.75-7.04 2.55l.91-1.5c.15 1.68.24 3.37.37 5.06.12 1.69.17 3.38.27 5.07.05 1.69.13 3.38.13 5.08.03 1.7.01 3.4-.06 5.11a87.14 87.14 0 01-1.16-4.97c-.36-1.66-.65-3.33-.97-5-.27-1.67-.57-3.34-.8-5.02-.22-1.68-.48-3.35-.68-5.03l-.13-1.09 1.04-.41c2.36-.92 4.75-1.79 7.14-2.63 2.38-.89 4.83-1.54 7.28-2.2 4.95-1.22 9.94-2.17 15.02-2.47zM200.07 20.85c4.27 3.28 8.27 6.93 11.98 10.9 3.64 4.02 6.99 8.38 9.7 13.16 2.81 4.72 4.81 9.86 6.83 14.81l5.94 14.97c1.9 5.03 3.8 10.09 5.43 15.27 1.58 5.19 2.98 10.47 3.9 15.81 1.96 10.66 2.79 21.51 2.24 32.27-1.11-10.71-2.79-21.27-5.28-31.62-2.44-10.36-6.09-20.3-10.02-30.29l-5.74-15.04c-1.84-5.07-3.68-9.99-6.05-14.69a73.958 73.958 0 00-3.92-6.86c-1.39-2.25-2.96-4.39-4.55-6.52-3.2-4.24-6.79-8.23-10.46-12.17z" class="shp9"/><path d="M210.16 17.61c1.37 2.29 2.41 4.71 3.26 7.22.42 1.26.77 2.54 1.03 3.88.25 1.34.44 2.7.28 4.28-.06.41-.14.82-.32 1.29-.06.22-.24.49-.37.72-.2.25-.37.5-.68.71-.26.2-.65.39-.98.45-.34.08-.64.08-.9.06a5.2 5.2 0 01-1.29-.27c-1.43-.51-2.53-1.15-3.69-1.8-2.28-1.29-4.52-2.83-6.35-4.77l7.35 2.63c1.21.43 2.44.94 3.5 1.21.26.06.49.1.62.1.07 0 .1-.01.07-.01l-.11.03c-.07.13.14-.27.18-.74.12-1 .02-2.25-.11-3.47-.13-1.23-.32-2.49-.51-3.76-.38-2.53-.81-5.1-.98-7.76z" class="shp9"/><path d="M217.04 20.85c2.43 2.99 4.11 6.66 4.61 10.69.24 1.98.21 3.88.27 5.79.02.96-.01 1.93-.05 2.91-.06 1-.08 1.94-.34 3.11-.08.3-.17.63-.41 1.05-.11.2-.3.44-.47.6-.16.15-.29.24-.45.36-.6.45-1.26.66-1.89.8-1.25.21-2.36.07-3.39-.15-1.03-.24-1.99-.57-2.92-.95-.93-.39-1.79-.78-2.71-1.33-.9-.56-1.64-1.12-2.4-1.69l-2.28-1.69c-1.53-1.13-3.08-2.23-4.56-3.47 1.81.65 3.56 1.43 5.32 2.21.86.42 1.72.85 2.57 1.29.85.43 1.68.95 2.46 1.29 1.6.64 3.41 1.31 5.07 1.56.83.13 1.64.18 2.27.04.29-.08.55-.16.71-.3l.12-.08c.01-.01-.04.05-.03.04 0 0 .05-.13.09-.28.18-.68.26-1.65.33-2.54.07-.92.08-1.85.14-2.79.1-1.89.19-3.79.24-5.61-.04-3.6-.95-7.28-2.3-10.86z" class="shp9"/><path d="M226.58 38.12c2.06 4.21 3.57 8.68 4.67 13.25.56 2.29 1.03 4.58 1.17 7.11.03 1.26-.1 2.71-.81 4.07-.7 1.33-1.79 2.34-2.99 3.03-1.22.68-2.51 1.05-3.8 1.24-1.21.19-2.69.24-3.99-.1-1.31-.33-2.43-.85-3.51-1.38-1.08-.53-2.1-1.12-3.11-1.72-4.02-2.4-7.88-4.99-11.63-7.8 4.36 1.71 8.56 3.75 12.73 5.73 2.08.93 4.18 2.03 6.13 2.4.97.19 1.85.16 2.93-.02 1.01-.17 1.97-.49 2.77-.95.81-.44 1.49-1.08 1.89-1.8.41-.7.52-1.64.56-2.68.04-2.12-.34-4.42-.62-6.69-.66-4.56-1.51-9.09-2.39-13.69z" class="shp9"/><path d="M224.51 34.78c.88 3.21 1.48 6.46 1.96 9.71.26 1.63.47 3.25.63 4.9.08.83.14 1.66.17 2.53.01.88.02 1.76-.22 2.81-.12.51-.33 1.09-.72 1.63-.4.53-.85.96-1.56 1.28-.68.27-1.26.3-1.77.3-.51-.01-.98-.04-1.42-.12-1.77-.29-3.37-.78-4.94-1.35-3.16-1.13-6.17-2.62-8.87-4.58 3.23.83 6.36 1.66 9.52 2.33 1.58.3 3.17.65 4.65.78.7.07 1.5.04 1.67-.08.04-.01.22-.16.29-.28.09-.13.18-.33.24-.61.15-.55.17-1.32.17-2.08.01-.77-.02-1.57-.04-2.38-.04-1.62-.12-3.26-.12-4.9-.04-3.27.01-6.56.36-9.89zm17.41 24.74c.46 4.55.26 9.17-.44 13.72-.33 2.29-.84 4.52-1.47 6.79a19.76 19.76 0 01-1.32 3.41c-.3.57-.65 1.15-1.15 1.72-.49.56-1.2 1.07-1.88 1.35-1.4.63-2.98.56-4.22.29-1.27-.29-2.39-.72-3.46-1.18-1.07-.47-2.1-.96-3.13-1.46-1.03-.47-2.1-1.05-3.08-1.65-3.99-2.41-7.52-5.54-10.21-9.25 3.59 2.83 7.35 5.27 11.32 7.19 1.01.47 1.98.89 3.03 1.31 1.05.42 2.09.85 3.12 1.22 2.04.76 4.12 1.42 5.45.77 1.26-.38 2.13-2.57 2.84-4.58.73-2.06 1.3-4.23 1.88-6.39 1.1-4.34 1.94-8.75 2.72-13.26z" class="shp9"/><path d="M252.68 69.05c.58 5.4.13 10.95-1.23 16.3-.65 2.69-1.63 5.3-2.79 7.83-1.18 2.53-2.66 4.88-4.2 7.18-.41.58-.86 1.17-1.44 1.76-.3.29-.63.58-1.03.84-.4.25-.88.47-1.32.58-.86.27-1.83.25-2.67.09-.86-.15-1.58-.48-2.27-.81-1.33-.7-2.45-1.52-3.56-2.33-1.11-.81-2.17-1.64-3.23-2.47-4.24-3.29-8.59-6.42-13.06-9.5 5.06 1.98 9.86 4.62 14.41 7.59 2.29 1.42 4.49 3.12 6.69 4.15 1.1.49 2.05.72 2.88.45.39-.1.67-.31 1.05-.69.36-.38.73-.87 1.1-1.39a53.31 53.31 0 007.2-13.94c1.72-5.02 2.81-10.26 3.47-15.64z" class="shp9"/><path d="M248.03 68.86c-.22 4.21-1.14 8.39-2.56 12.4-.7 2.01-1.47 3.91-2.33 5.9-.44.99-.96 1.96-1.62 2.94-.65.96-1.53 1.95-2.71 2.61-1.17.64-2.43.93-3.68.96-1.25.02-2.42-.21-3.5-.53-1.09-.34-2.11-.75-3.09-1.22-.99-.45-1.92-.96-2.84-1.5-1.84-1.06-3.58-2.18-5.35-3.36-1.73-1.22-3.4-2.52-4.9-4.01 1.89.94 3.74 1.89 5.63 2.73l5.68 2.55c1.89.8 3.75 1.64 5.61 2.06 1.84.47 3.62.46 4.98-.3 1.33-.67 2.32-2.4 3.24-4.17.94-1.78 1.8-3.71 2.73-5.54 1.76-3.72 3.27-7.55 4.71-11.52z" class="shp9"/><path d="M235.95 55.23c.69 3.24.76 6.62.39 9.96-.21 1.69-.45 3.26-.79 4.92-.37 1.64-.75 3.38-1.97 5.09-.61.85-1.54 1.53-2.51 1.95-.99.42-2.01.52-2.98.54-1.93-.06-3.67-.61-5.27-1.33-3.18-1.47-5.81-3.68-8.09-6.12l.07.05c-1.33-1.17-2.66-2.33-3.92-3.6 1.62.75 3.18 1.6 4.73 2.44l.07.05c2.61 1.89 5.35 3.56 8.2 4.64 1.42.53 2.88.88 4.22.89 1.35-.03 2.44-.41 3.14-1.33.75-.93 1.25-2.43 1.69-3.93.43-1.51.89-3.13 1.29-4.66.79-3.09 1.32-6.28 1.73-9.56zm8.31 70.47c-.8.6-1.8.96-2.84 1.1-1.03.12-2.1.06-3.1-.16-2.02-.42-3.85-1.27-5.53-2.24a31.78 31.78 0 01-4.69-3.38c-1.45-1.27-2.81-2.62-4-4.22 1.91.58 3.64 1.4 5.33 2.27 1.68.87 3.3 1.81 4.88 2.74 1.59.93 3.14 1.85 4.73 2.59 1.6.76 3.22 1.3 5.22 1.3zm19.81-30.87c-.67 2.2-1.58 4.23-2.54 6.24-.97 1.99-2.02 3.93-3.14 5.83s-2.3 3.76-3.57 5.57c-1.29 1.81-2.62 3.59-4.21 5.25.49-2.25 1.27-4.35 2.15-6.4.9-2.05 1.92-4.03 3.05-5.94 1.13-1.92 2.37-3.77 3.72-5.54 1.37-1.77 2.82-3.48 4.54-5.01zm-5.65-7.13c-1.05 4.35-2.87 8.52-5.18 12.39a75.533 75.533 0 01-3.67 5.65c-1.35 1.82-3.02 3.72-5.39 4.87-1.17.55-2.42.86-3.71.96-1.29.09-2.56-.07-3.72-.38-2.32-.63-4.38-1.53-6.39-2.5-4.07-1.83-8.01-4.22-11.29-7.24 4.02 2 8.01 3.67 12.18 5.07 2.09.7 4.13 1.51 6.13 1.89 1.97.42 3.84.27 5.54-.53 1.68-.75 3.08-2.23 4.42-3.89 1.36-1.64 2.62-3.48 3.97-5.21 2.59-3.48 4.91-7.19 7.11-11.08z" class="shp9"/><path fill="#2F80ED" d="M257.32 560.75c8.5 8.18 21.05 6.04 31.71 7.59.69.1 1.54-.03 2.05-.55.39-.4.37-1.01-.3-1.1-10.17-1.48-22.68.7-30.78-7.1-.77-.74-3.51.36-2.68 1.16zm3.84-15.37c1.76 1.73 3.96 2.56 6.3 3.23a69.1 69.1 0 008.4 1.83c5.77.9 11.62 1.19 17.45 1.47.68.03 1.6-.19 1.88-.9.25-.63-.23-1.22-.89-1.25-5.36-.26-10.73-.52-16.05-1.26-2.61-.36-5.21-.84-7.76-1.5-2.28-.6-4.94-1.19-6.68-2.91-.95-.93-3.68.27-2.65 1.29zm3.7-12.85c10.13 3.53 20.91 4.85 31.6 3.99.52-.04 1.56-.39 1.64-1.02.08-.67-.82-.72-1.27-.68-10.23.82-20.53-.56-30.22-3.93-.97-.34-3.38 1.07-1.75 1.64zm4.19-21.07c9.2 5.51 20.16 6.53 30.66 6.03 1.53-.07 2.33-1.93.33-1.84-9.85.48-20.1-.55-28.72-5.71-.93-.57-3.55.75-2.27 1.52zm4.85-23.4c9.38 4.6 20 6.3 30.35 4.85.55-.08 1.55-.38 1.62-1.06.07-.67-.79-.83-1.29-.76-9.7 1.36-19.62-.23-28.41-4.54-.64-.31-1.49-.17-2.06.23-.4.27-.86.96-.21 1.28zm5.52-24.05a61.484 61.484 0 0029.79 5.21c.58-.04 1.55-.43 1.61-1.11.07-.71-.77-.88-1.31-.84-9.51.72-19.12-.94-27.83-4.84a2.08 2.08 0 00-2.07.21c-.39.27-.87 1.06-.19 1.37zm5.19-22.92c4.52 2.55 9.45 4.36 14.55 5.32 4.71.89 10.44 1.72 14.88-.53.48-.24.77-.77.26-1.11-.55-.37-1.54.02-2.05.28-1.89.96-4.53.6-6.58.44-2.17-.17-4.33-.51-6.46-1-4.31-.99-8.43-2.62-12.28-4.79-.81-.45-3.49.74-2.32 1.39zm3.07-21.29c1.96 1.45 4.41 1.9 6.74 2.41 2.73.6 5.49 1.05 8.27 1.37 2.68.3 5.37.47 8.07.52 2.35.04 5.13.34 7.26-.85 1.72-.96.16-2.5-1.28-1.69-.95.53-2.08.43-3.14.45-1.15.01-2.31 0-3.46-.04-2.31-.08-4.62-.26-6.92-.53s-4.59-.65-6.85-1.11c-2.19-.45-4.62-.83-6.45-2.18-1.03-.77-3.57.67-2.24 1.65zm3.29-17.77c9.33 2.47 19.01 3.23 28.62 2.36.49-.04 1.57-.37 1.65-.97.09-.65-.84-.63-1.24-.59-9.15.83-18.36 0-27.24-2.35-.9-.23-3.4 1.12-1.79 1.55zm1.92-22.52c1.48 1.84 3.9 2.34 6.07 2.94 2.67.74 5.37 1.38 8.1 1.83 5.32.87 10.84.86 15.99-.9.53-.18 1.38-.63 1.19-1.34-.18-.66-1.18-.74-1.7-.56-4.55 1.56-9.3 1.56-14.01.84-2.36-.36-4.7-.9-7.01-1.52-1.96-.52-4.63-.87-5.97-2.54-.79-.98-3.56.14-2.66 1.25zm2.93-19.78c9.71 3.48 20.02.29 29.39-2.72.32-.1 1.14-.43.85-.86-.26-.4-1.59.05-1.87.14-8.39 2.7-17.32 5.4-26 2.28-.59-.21-1.5.09-2.03.36-.3.16-.94.58-.34.8zm3.23-18.7c6.12-1.6 12.57-1.2 18.73-2.66 2.56-.6 5.08-1.48 7.37-2.79.58-.33 5.5-3.62 3.92-4.23-.57-.22-1.31 0-1.86.19-.1.04-1.3.61-.88.77.7.27-1.5 1.99-1.82 2.23-.93.7-1.95 1.27-3.02 1.74-2.11.94-4.38 1.44-6.66 1.77-5.35.77-10.76.78-16.01 2.16-.24.06-1.45.38-1.34.79.12.41 1.38.08 1.57.03z"/><path fill="url(#grd12)" d="M295.98 318.42c1.37 2.43 5.22 2.02 7.56 1.92 3.15-.14 6.3-.65 9.34-1.5s6-2.04 8.77-3.55c1.34-.73 2.65-1.54 3.91-2.42 1.18-.82 2.3-1.67 2.16-3.23-.12-1.34-3.02-.64-2.9.78.06.69-2.25 1.82-2.78 2.14-1.03.64-2.1 1.22-3.18 1.76a38.053 38.053 0 01-6.93 2.6c-2.32.62-4.69 1.02-7.09 1.19-1.65.12-5.22.77-6.21-.99-.64-1.13-3.4-.04-2.65 1.3z"/><path fill="url(#grd13)" d="M293.44 300.64c5.51 2.16 12.03.84 17.34-1.29a32.52 32.52 0 007.3-4.09c2.08-1.55 4.8-3.53 5.6-6.1.4-1.28-2.56-.94-2.93.25-.35 1.13-1.51 2.03-2.35 2.81-.85.78-1.76 1.5-2.7 2.17-1.91 1.37-3.99 2.48-6.17 3.36-4.43 1.78-9.83 2.8-14.39 1.02-1.17-.45-3.39 1.21-1.7 1.87z"/><path fill="url(#grd14)" d="M287.38 276.41c5.62 1.3 11.53-1.05 16.75-2.94 4.69-1.71 9.41-3.98 12.52-8.04.4-.53-.35-.68-.74-.68-.6 0-1.53.24-1.92.75-2.66 3.48-6.55 5.4-10.57 6.89-4.43 1.64-9.43 3.73-14.21 2.63-.79-.19-3.38 1.03-1.83 1.39z"/><path fill="url(#grd15)" d="M285.45 253.5c9.5.72 17.24-5.3 24.1-11.04.51-.43.23-1-.31-1.17-.7-.23-1.52.11-2.05.55-5.85 4.89-12.54 10.46-20.66 9.84-.63-.05-1.59.22-1.9.83-.32.61.28.95.82.99z"/><path fill="url(#grd16)" d="M280.59 233.38c7.95 1.07 16.47-1.93 21.86-7.9.45-.5-.39-.62-.72-.61-.62.01-1.49.24-1.93.73-4.41 4.88-10.84 7.34-17.37 6.46-.65-.09-1.53.14-2.05.55-.44.35-.38.69.21.77z"/><path fill="url(#grd17)" d="M275.37 209.9c6.89 1.62 14.85-.68 19.71-5.85.44-.47-.39-.51-.69-.49-.59.04-1.51.24-1.94.7-3.82 4.06-9.26 5.8-14.71 4.51-.64-.15-1.45.08-2.03.37-.23.12-.98.61-.34.76z"/><path fill="url(#grd18)" d="M273 195.22c6.32.47 12.68-1.24 17.93-4.78.5-.34.31-.71-.21-.8-.67-.11-1.5.18-2.05.55a21.83 21.83 0 01-13.83 3.68c-.67-.05-1.51.11-2.05.55-.42.34-.41.76.21.8z"/><path fill="url(#grd19)" d="M267.65 177.76c2.28 1.36 5.19.79 7.54-.1 1.19-.45 2.31-1.06 3.46-1.62.97-.48 1.98-.98 3.09-.94.68.02 1.49-.14 2.05-.55.42-.31.42-.68-.19-.7-2.7-.09-5.13.96-7.49 2.15-1.82.92-3.77 1.92-5.73.76-.52-.31-1.35-.06-1.88.13-.15.04-1.32.59-.85.87z"/></svg>